<svg width="30" height="37" viewBox="0 0 30 37" fill="none" xmlns="http://www.w3.org/2000/svg">
<path fill-rule="evenodd" clip-rule="evenodd" d="M8.09173 35.3342C7.39777 34.8714 6.78147 34.3017 6.26573 33.6462C5.70393 32.9659 5.18237 32.2533 4.70372 31.5122C3.57986 29.8682 2.69975 28.0702 2.09073 26.1742C1.38407 24.1199 1.01561 21.9645 0.999729 19.7922C0.951471 17.6974 1.45902 15.6271 2.47073 13.7922C3.19466 12.4682 4.25853 11.3611 5.55273 10.5852C6.80685 9.80731 8.24725 9.38141 9.72273 9.35219C10.2826 9.35778 10.8397 9.43166 11.3817 9.57219C11.8077 9.68919 12.3217 9.88019 12.9527 10.1152C13.7597 10.4232 14.2007 10.6152 14.3477 10.6582C14.7214 10.8097 15.1188 10.8943 15.5217 10.9082C15.8447 10.8884 16.1634 10.8242 16.4687 10.7172C16.6817 10.6442 17.0857 10.5112 17.6577 10.2622C18.2247 10.0562 18.6737 9.88019 19.0307 9.74819C19.5352 9.58636 20.0496 9.45742 20.5707 9.36219C21.1268 9.27419 21.6913 9.25103 22.2527 9.29319C23.2271 9.35869 24.1866 9.56656 25.1007 9.91019C26.5694 10.477 27.8285 11.4813 28.7077 12.7872C28.3289 13.0228 27.9727 13.2929 27.6437 13.5942C26.9279 14.2297 26.3183 14.9754 25.8377 15.8032C25.2082 16.9341 24.8826 18.2089 24.8927 19.5032C24.8815 20.994 25.3104 22.455 26.1257 23.7032C26.7138 24.6014 27.4803 25.369 28.3777 25.9582C28.7604 26.2277 29.1744 26.4497 29.6107 26.6192C29.4347 27.1702 29.2407 27.7052 29.0157 28.2342C28.5102 29.4188 27.8959 30.554 27.1807 31.6252C26.5467 32.5502 26.0477 33.2402 25.6687 33.6952C25.1724 34.3129 24.589 34.8552 23.9367 35.3052C23.3044 35.7235 22.5629 35.9461 21.8047 35.9452C21.292 35.966 20.7793 35.9032 20.2867 35.7592C19.8607 35.6202 19.4407 35.4592 19.0297 35.2852C18.5989 35.0878 18.1548 34.9207 17.7007 34.7852C17.1429 34.6392 16.5684 34.5666 15.9917 34.5692C15.4184 34.5688 14.8473 34.6403 14.2917 34.7822C13.8379 34.9113 13.3933 35.0707 12.9607 35.2592C12.3437 35.5162 11.9407 35.6852 11.7057 35.7592C11.2326 35.8992 10.7452 35.9854 10.2527 36.0162C9.47732 36.0099 8.72013 35.7805 8.07173 35.3552L8.09173 35.3342ZM18.1527 8.23521C17.2636 8.71204 16.2599 8.93355 15.2527 8.87521C15.1241 7.86071 15.262 6.83021 15.6527 5.88521C15.9911 4.98223 16.4882 4.14708 17.1207 3.41921C17.7924 2.65454 18.6048 2.02614 19.5137 1.56821C20.3704 1.10404 21.3167 0.829176 22.2887 0.762207C22.4035 1.78996 22.2779 2.83033 21.9217 3.80121C21.5834 4.73958 21.0865 5.61293 20.4527 6.3832C19.8098 7.15094 19.0178 7.78029 18.1247 8.23321L18.1527 8.23521Z" fill="#B0B7C3"/>
</svg>
