<svg width="143" height="26" viewBox="0 0 143 26" fill="none" xmlns="http://www.w3.org/2000/svg">
<g clip-path="url(#clip0)">
<path d="M0 0.0150197C4.00756 0.020404 8.01668 -0.0416323 12.0223 0.0530608C15.1101 0.126099 17.5293 2.28918 18.0502 5.24374C18.6396 8.58831 16.957 11.4441 14.3613 12.2104C14.2953 12.2298 14.2417 12.2929 14.153 12.3567C16.6272 13.0872 18.104 14.7762 18.5199 17.3068C19.2055 21.4819 16.9727 24.9126 12.7542 25.398C11.8186 25.5055 10.8686 25.5028 9.92505 25.5078C6.61681 25.5259 3.30834 25.5254 0.000113427 25.5319L0 0.0150197ZM5.32779 20.6603C5.39656 20.6847 5.46523 20.7302 5.53366 20.7302C7.19425 20.733 8.85775 20.7938 10.5148 20.7128C12.2293 20.6288 13.2489 19.542 13.2943 17.9404C13.3401 16.3312 12.3983 15.1706 10.7192 14.9627C9.65769 14.8313 8.57345 14.8916 7.49939 14.876C6.78773 14.8658 6.07569 14.8741 5.32779 14.8741V20.6603ZM5.29147 10.1261C6.83948 10.1261 8.3093 10.1288 9.77907 10.1237C10.0619 10.1227 10.3512 10.1252 10.6263 10.0681C11.6642 9.85313 12.4458 9.30432 12.7176 8.18856C13.151 6.40978 12.0517 4.87304 10.2672 4.78186C9.4375 4.7396 8.60433 4.77015 7.7728 4.76933C6.96636 4.76828 6.15967 4.7691 5.32813 4.7691C5.31156 4.95334 5.29284 5.0657 5.29272 5.17807C5.29079 6.79394 5.29147 8.40977 5.29147 10.1261ZM95.5589 26C94.9321 25.8799 94.2989 25.7878 93.6799 25.6347C88.835 24.4369 86.3656 20.1356 86.7889 15.3828C87.1439 11.4032 89.089 8.49384 92.7935 7.14696C97.9664 5.26644 103.965 7.80534 104.85 14.9036C104.966 15.8414 104.961 16.7955 105.016 17.8262H91.6587C91.9682 19.5749 92.8234 20.8017 94.3145 21.4538C96.737 22.5135 99.0065 21.9853 101.147 20.5648C101.273 20.4809 101.39 20.3812 101.513 20.2909C101.525 20.282 101.549 20.2897 101.635 20.2897C102.289 21.2836 102.965 22.31 103.725 23.4634C103.035 23.9067 102.4 24.3872 101.706 24.747C100.429 25.4089 99.0549 25.7598 97.6284 25.8824C97.4655 25.8963 97.3076 25.9595 97.1475 25.9999L95.5589 26ZM100.406 14.4673C100.499 12.1757 98.3819 10.4255 95.7012 10.5346C93.4715 10.6253 91.4894 12.5727 91.7278 14.4673H100.406ZM114.739 26C113.967 25.84 113.184 25.7269 112.428 25.5118C108.817 24.4843 106.326 21.3347 105.998 17.4854C105.688 13.8544 106.709 10.7771 109.535 8.48647C113.818 5.01537 122.234 5.80277 123.906 14.0155C124.026 14.604 124.096 15.208 124.133 15.8085C124.171 16.4461 124.141 17.0884 124.141 17.8258H110.871C110.987 18.8525 111.373 19.678 112.015 20.3607C113.482 21.9231 115.313 22.2171 117.293 21.8589C118.554 21.6306 119.718 21.1365 120.766 20.2106L122.902 23.4404C122.346 23.8243 121.842 24.2302 121.289 24.5425C119.913 25.3188 118.424 25.7284 116.865 25.8789C116.684 25.8963 116.507 25.9585 116.327 25.9998C115.797 26 115.268 26 114.739 26ZM110.903 14.4641H119.589C119.701 12.2427 117.634 10.4783 115.037 10.5307C112.732 10.5769 110.737 12.4569 110.903 14.4641ZM26.8972 26C26.3294 25.8801 25.758 25.7763 25.1947 25.6377C21.7051 24.78 19.6438 22.086 19.6407 18.3828C19.638 14.8331 19.6402 11.2833 19.6402 7.7337V7.09757H24.357V7.77537C24.357 11.1302 24.3666 14.4848 24.3527 17.8394C24.3462 19.361 24.7976 20.6496 26.1955 21.3118C27.7108 22.0294 29.2624 22.0032 30.6641 20.9736C31.6909 20.2196 31.9811 19.0655 31.9832 17.8255C31.9895 14.4903 31.9855 11.1551 31.9855 7.82V7.08656H36.651L36.6513 7.74403C36.6513 11.2548 36.6528 14.7655 36.6507 18.2763C36.6483 22.5126 34.0917 25.4247 29.9945 25.8687C29.7922 25.8907 29.5942 25.9549 29.3941 25.9996C28.5617 26 27.7293 26 26.8972 26ZM71.4353 25.4733V0.0322259H88.5924V2.50009C88.5924 3.04625 88.5568 3.59556 88.6024 4.13773C88.6472 4.67757 88.4373 4.78232 87.9557 4.77952C84.5699 4.75962 81.1849 4.76898 77.7991 4.76898H76.7284V10.1261H77.3673C79.9206 10.1261 82.474 10.1412 85.0274 10.1137C85.5432 10.1082 85.6641 10.2774 85.652 10.78C85.6207 12.1205 85.6413 13.4622 85.6413 14.8699H76.69V25.4733H71.4353ZM125.336 25.4633V24.794C125.336 19.1005 125.336 13.4073 125.337 7.71384C125.337 6.96647 125.338 6.95992 126.085 6.96705C128.674 6.99164 131.273 6.87787 133.849 7.08352C137.518 7.37634 140.39 9.08093 141.75 12.817C143.132 16.6133 142.079 20.946 139.271 23.3197C137.617 24.7181 135.67 25.4067 133.574 25.4846C130.912 25.584 128.244 25.516 125.578 25.518C125.524 25.5181 125.47 25.4944 125.336 25.4633ZM129.835 21.5587C130.739 21.5587 131.586 21.5589 132.432 21.5587C135.478 21.5576 137.396 19.7872 137.737 16.6614C137.982 14.4171 136.805 12.1849 134.931 11.3923C133.28 10.6945 131.554 11.0655 129.835 10.9669C129.835 14.5309 129.835 17.996 129.835 21.5587ZM46.1598 11.2532H38.1679V7.07849H52.6159C52.6159 7.86608 52.5775 8.65757 52.6271 9.44349C52.6727 10.1679 52.4591 10.7275 52.0156 11.2963C49.6128 14.3802 47.2477 17.4953 44.8703 20.6003C44.7428 20.7668 44.6214 20.9384 44.4227 21.2091H52.7118V25.4639H38.1242C38.1242 24.3017 38.1076 23.14 38.1398 21.9796C38.1454 21.7803 38.3394 21.5727 38.4762 21.3933C40.9152 18.1895 43.3591 14.9899 45.8005 11.788C45.9021 11.6544 45.9887 11.5085 46.1598 11.2532ZM54.0028 11.2579C54.0028 9.94045 54.0017 8.73289 54.0046 7.52512C54.0048 7.39194 54.0261 7.25877 54.0413 7.08597H68.4446C68.4446 8.20834 68.4565 9.31269 68.432 10.4162C68.4282 10.5826 68.2691 10.7578 68.1553 10.9071C65.6752 14.1531 63.1911 17.3958 60.7092 20.6403C60.5866 20.8006 60.4773 20.9717 60.2863 21.2458H61.0094C63.3538 21.2458 65.6983 21.256 68.043 21.237C68.4785 21.2336 68.6411 21.344 68.6284 21.8227C68.5965 23.027 68.6179 24.233 68.6179 25.4746H54.0169C54.0169 24.2719 54.0076 23.0891 54.0287 21.907C54.0312 21.7588 54.1821 21.6041 54.2848 21.4693C56.6663 18.3417 59.0509 15.2167 61.4347 12.0908C61.6167 11.8519 61.7949 11.6098 62.0582 11.2577L54.0028 11.2579Z" fill="#B0B7C3"/>
</g>
<defs>
<clipPath id="clip0">
<rect width="143" height="26" fill="white"/>
</clipPath>
</defs>
</svg>
