<svg width="122" height="30" viewBox="0 0 122 30" fill="none" xmlns="http://www.w3.org/2000/svg">
<path fill-rule="evenodd" clip-rule="evenodd" d="M120.506 20.7748C120.129 20.4993 119.829 20.4599 119.582 20.9848C115.339 30.2355 108.194 25.6167 108.91 26.0235C110.497 25.2887 114.662 21.9295 114.038 17.2713C113.66 14.4239 111.239 13.1642 108.662 13.6235C104.172 14.4108 102.532 19.2921 103.365 23.6091C103.508 24.3571 103.769 24.9607 104.042 25.5643C98.9792 29.7238 96.962 21.8508 96.7276 20.906C96.7148 20.8535 100.645 17.56 101.738 9.70011C102.884 1.47279 100.281 -0.0362034 97.6128 0.0162834C92.6801 0.108135 91.3524 10.4874 93.1354 19.1346C92.9923 19.174 92.2894 19.5676 91.1703 19.607C90.3633 17.0482 86.9143 14.8045 86.0163 15.6705C83.7646 17.8356 86.5629 22.0607 88.5414 22.3888C87.3568 29.7501 79.9383 27.9262 81.3178 18.7016C83.7256 14.1877 85.5738 7.45629 85.2355 3.40167C85.1182 1.97142 84.064 0.0425268 81.6823 0.134379C77.101 0.318084 76.6065 10.6973 77.14 18.0718C77.1141 17.888 76.8538 18.964 74.9794 19.502C74.5369 17.022 70.5675 14.5158 69.6305 15.723C67.8865 17.9668 70.9189 21.9689 72.3505 22.2445C71.1662 29.6057 63.7477 27.7818 65.1272 18.5572C67.5481 14.0434 69.3832 7.32507 69.0577 3.27048C68.9407 1.8402 67.8865 -0.0886902 65.5045 0.0031617C60.9232 0.186865 60.4287 10.5661 60.9625 17.9405C60.9363 17.7568 60.676 18.8722 58.7237 19.397C58.6588 16.1691 54.6762 14.6995 53.713 15.723C52.008 17.56 54.1034 21.3259 56.0426 22.2445C54.8583 29.6057 47.4398 27.7818 48.8193 18.5572C51.2272 14.0434 53.0754 7.31196 52.737 3.25734C52.6329 1.8402 51.5786 -0.0886902 49.1966 0.0031617C44.6154 0.186865 44.2512 11.091 44.7847 18.4654C43.2749 24.9869 38.2122 33.1224 38.8757 16.8121C38.9409 15.6705 39.0061 15.2374 38.4464 14.8045C38.017 14.4764 37.0538 14.6338 36.5331 14.647C35.8954 14.6732 35.7264 15.0538 35.596 15.618C35.2708 17.0876 35.2056 18.5179 35.1536 20.473C35.1277 21.3915 35.0494 21.8114 34.698 23.058C34.3466 24.3046 32.3684 26.5746 31.2751 26.1941C29.7653 25.6692 30.2599 21.3784 30.5461 18.426C30.7806 16.0904 30.0257 15.0538 28.0994 14.6732C26.9671 14.437 26.2773 14.4764 25.106 14.0959C23.9867 13.7416 23.7394 11.6159 21.3707 12.3244C20.0692 12.7181 20.9021 15.4868 20.5898 17.5469C19.054 27.6637 15.8653 27.9393 14.3816 23.0317C21.0453 6.55089 16.2948 0.0556485 13.5226 0.0556485C10.6333 0.0556485 7.32747 2.06327 8.72005 14.9225C8.04328 14.7257 7.83505 14.6207 7.08017 14.6207C2.87632 14.6076 0 18.0455 0 22.2838C0 26.5221 2.87632 29.96 7.0932 29.96C9.57905 29.96 11.3231 28.8184 12.6506 27.0601C13.5096 28.3067 14.5638 29.9863 16.49 29.9075C22.2166 29.6845 23.8826 17.8356 24.0778 17.1664C24.6895 17.2582 25.2752 17.4419 25.8348 17.5338C26.7719 17.6781 26.85 18.0586 26.824 19.0034C26.5767 27.0601 28.0474 29.8813 31.3924 29.8813C33.2533 29.8813 34.9194 28.0311 36.0647 26.719C36.9237 28.5035 38.2771 29.8288 40.1124 29.8813C44.5374 29.9863 46.2425 22.8743 46.0862 23.8059C45.969 24.5408 47.5178 29.8288 52.0863 29.855C57.7346 29.8813 58.7888 23.6222 58.9061 22.5725C58.932 22.3888 58.9192 22.3625 58.9061 22.5725C58.9061 22.5856 58.9061 22.6119 58.9061 22.6381C60.7021 22.2969 61.6261 21.3391 61.6261 21.3391C61.6261 21.3391 63.0707 29.96 68.3941 29.8682C73.9255 29.7632 74.9794 24.1077 75.1097 23.0055C75.1356 22.7693 75.1228 22.7431 75.1097 23.0055C75.1097 23.0186 75.1097 23.0317 75.1097 23.0317C77.2442 22.2445 77.8039 21.4703 77.8039 21.4703C77.8039 21.4703 78.9492 29.9206 84.5716 29.9994C89.5825 30.0651 91.4435 24.8819 91.4566 22.7168C92.3025 22.7299 93.8644 22.2051 93.8254 22.1788C93.8254 22.1788 95.6605 29.5664 100.788 29.9469C103.196 30.1305 105.005 28.5822 106.033 27.8737C108.454 29.855 116.511 32.3745 121.599 23.6747C122.328 22.4413 120.779 20.9585 120.506 20.7748ZM6.88494 27.0864C4.42512 27.0864 2.85029 24.7901 2.85029 22.3232C2.85029 19.8563 4.29497 17.56 6.75481 17.56C7.86108 17.56 8.47278 17.6781 9.34478 18.4392C9.50097 19.0559 9.94348 20.4862 10.1647 21.1422C10.4511 22.0083 10.8025 22.7562 11.1409 23.5566C10.6333 25.6298 9.0194 27.0864 6.88494 27.0864ZM12.8719 18.5048C12.7677 18.3342 12.7938 18.4392 12.6766 18.2817C12.2341 17.0482 11.3621 14.2927 11.258 11.1566C11.1409 7.61376 11.7266 3.45417 13.4575 3.45417C14.6289 3.45417 15.8783 11.8783 12.8719 18.5048ZM47.5047 14.8176C47.2316 12.7181 47.2185 3.33609 49.4442 3.5985C50.6806 4.09713 48.6631 12.9412 47.5047 14.8176ZM63.8125 14.8176C63.5394 12.7181 63.5263 3.33609 65.7521 3.5985C66.9884 4.09713 64.971 12.9412 63.8125 14.8176ZM79.9903 14.9488C79.7169 12.8493 79.7041 3.46728 81.9296 3.72972C83.1659 4.21524 81.1488 13.0724 79.9903 14.9488ZM97.847 3.03429C99.8903 2.82433 99.7993 11.8127 95.7126 17.4813C95.1788 15.4343 94.3721 3.74286 97.847 3.03429ZM106.437 22.3888C105.786 19.0428 107.478 16.8514 109.222 16.6152C109.834 16.5234 110.719 16.917 110.888 17.665C111.174 19.069 110.849 21.1553 106.932 23.7928C106.945 23.8059 106.58 23.1236 106.437 22.3888ZM37.21 12.0751C38.6026 12.0751 39.7348 10.9335 39.7348 9.52953C39.7348 8.1255 38.6026 6.98391 37.21 6.98391C35.8174 6.98391 34.6849 8.1255 34.6849 9.52953C34.6849 10.9335 35.8174 12.0751 37.21 12.0751Z" fill="#B0B7C3"/>
</svg>
