<svg width="152" height="30" viewBox="0 0 152 30" fill="none" xmlns="http://www.w3.org/2000/svg">
<path d="M17.5595 5.54709L8.77977 11.0805L17.5595 16.6139L8.77977 22.1474L0 16.5679L8.77977 11.0344L0 5.54709L8.77977 0.0136719L17.5595 5.54709ZM8.73308 23.8996L17.5128 18.3662L26.2927 23.8996L17.5128 29.433L8.73308 23.8996ZM17.5595 16.5679L26.3394 11.0344L17.5595 5.54709L26.2927 0.0136719L35.0725 5.54709L26.2927 11.0805L35.0725 16.6139L26.2927 22.1474L17.5595 16.5679Z" fill="#B0B7C3"/>
<path d="M41.9375 5.54735H49.0361C53.5661 5.54735 57.3022 8.12962 57.3022 14.0319V15.2769C57.3022 21.2254 53.7996 23.8999 49.1762 23.8999H41.9375V5.54735ZM45.9071 8.86744V20.5337H48.9427C51.5112 20.5337 53.2392 18.8737 53.2392 15.1848V14.2164C53.2392 10.5274 51.4178 8.86744 48.8026 8.86744H45.9071ZM59.4037 9.05185H62.5794L63.0931 12.5103C63.7002 10.1585 65.2414 8.91352 68.0434 8.91352H69.0242V12.8791H67.3896C64.1672 12.8791 63.3733 13.9859 63.3733 17.1214V23.946H59.4504V9.05185H59.4037ZM69.818 16.7987V16.3836C69.818 11.4035 73.0404 8.68294 77.4303 8.68294C81.9136 8.68294 85.0423 11.4035 85.0423 16.3836V16.7987C85.0423 21.6865 82.007 24.3149 77.4303 24.3149C72.5734 24.2688 69.818 21.6865 69.818 16.7987ZM81.0263 16.7525V16.3836C81.0263 13.6169 79.6252 11.9569 77.3836 11.9569C75.1887 11.9569 73.741 13.4786 73.741 16.3836V16.7525C73.741 19.427 75.142 20.9487 77.3836 20.9487C79.6252 20.9026 81.0263 19.427 81.0263 16.7525ZM87.0977 9.05185H90.3666L90.7398 11.8647C91.5344 9.9741 93.2149 8.68294 95.6908 8.68294C99.5195 8.68294 102.042 11.4035 102.042 16.4298V16.8448C102.042 21.7326 99.24 24.3149 95.6908 24.3149C93.3086 24.3149 91.6738 23.2543 90.88 21.5482V29.0644H87.0504L87.0977 9.05185ZM98.0721 16.7525V16.4298C98.0721 13.4786 96.531 12.003 94.4765 12.003C92.2809 12.003 90.8335 13.663 90.8335 16.4298V16.7064C90.8335 19.3348 92.2345 20.9949 94.4292 20.9949C96.6712 20.9487 98.0721 19.5193 98.0721 16.7525ZM107.833 21.1793L107.505 23.8999H104.144V4.07178H107.972V11.6803C108.813 9.74352 110.495 8.68294 112.876 8.68294C116.473 8.7291 119.134 11.173 119.134 16.1069V16.5681C119.134 21.502 116.613 24.3149 112.783 24.3149C110.261 24.2688 108.627 23.1159 107.833 21.1793ZM115.118 16.5681V16.1992C115.118 13.4786 113.623 11.9569 111.522 11.9569C109.374 11.9569 107.879 13.663 107.879 16.2453V16.5681C107.879 19.3348 109.327 20.9487 111.475 20.9487C113.764 20.9487 115.118 19.5193 115.118 16.5681ZM120.816 16.7987V16.3836C120.816 11.4035 124.038 8.68294 128.428 8.68294C132.911 8.68294 136.04 11.4035 136.04 16.3836V16.7987C136.04 21.6865 132.958 24.3149 128.428 24.3149C123.571 24.2688 120.816 21.6865 120.816 16.7987ZM132.07 16.7525V16.3836C132.07 13.6169 130.669 11.9569 128.428 11.9569C126.233 11.9569 124.785 13.4786 124.785 16.3836V16.7525C124.785 19.427 126.186 20.9487 128.428 20.9487C130.669 20.9026 132.07 19.427 132.07 16.7525ZM141.178 16.1992L135.9 9.05185H140.43L143.465 13.5247L146.547 9.05185H151.031L145.661 16.1531L151.311 23.8999H146.875L143.419 18.9659L140.056 23.8999H135.433L141.178 16.1992Z" fill="#B0B7C3"/>
</svg>
