<svg width="163" height="44" viewBox="0 0 163 44" fill="none" xmlns="http://www.w3.org/2000/svg">
<path d="M31.0948 20.7084C31.3936 20.7084 31.6924 20.7084 31.9912 20.7084C32.1813 20.301 32.1813 19.7034 31.9912 19.0243C31.801 18.0192 31.5022 17.3402 30.9046 17.4217C30.307 17.5303 30.307 18.318 30.4972 19.3231C30.5787 19.9207 30.796 20.4096 31.0948 20.7084Z" fill="#B0B7C3"/>
<path d="M25.8271 21.605C26.2345 21.7952 26.5333 21.9038 26.6148 21.7952C26.7234 21.6865 26.6148 21.605 26.5061 21.3877C26.316 20.9803 25.7999 20.6815 25.4196 20.4913C24.4146 20.0839 23.3281 20.1925 22.4317 20.8988C22.1329 21.0889 21.8341 21.3877 21.9427 21.605C21.9427 21.7137 22.0514 21.7137 22.1329 21.7137C22.323 21.7137 23.2194 21.3062 24.2244 21.2247C24.822 21.1976 25.4196 21.4149 25.8271 21.605Z" fill="#B0B7C3"/>
<path d="M24.9302 22.0937C24.3327 22.2023 24.0339 22.3925 23.8437 22.5826C23.6536 22.7728 23.5449 22.8814 23.5449 22.9901V23.0987H23.6536C23.7622 23.0987 24.061 22.9901 24.061 22.9901C24.8488 22.6913 25.3649 22.6913 25.8538 22.7999C26.1526 22.7999 26.2612 22.9086 26.3427 22.7999C26.3427 22.7999 26.3427 22.6913 26.3427 22.6098C26.3156 22.311 25.718 22.0122 24.9302 22.0937Z" fill="#B0B7C3"/>
<path d="M25.2287 22.7999C25.4189 22.3924 25.4189 21.4961 25.2287 20.817C25.0386 19.8119 24.7398 19.2144 24.0335 19.2144C23.4359 19.323 23.4359 20.1107 23.6261 21.1973C23.7347 21.9035 24.0335 22.2838 24.115 22.5826C24.6311 23.3975 24.9299 23.1802 25.2287 22.7999Z" fill="#B0B7C3"/>
<path d="M29.3022 23.8866C29.7096 24.0767 30.0899 23.9952 30.3072 23.6964C30.4159 23.3976 30.1986 22.9902 29.8183 22.8C29.4108 22.6099 29.0305 22.6914 28.8132 22.9902C28.5959 23.289 28.8947 23.6964 29.3022 23.8866Z" fill="#B0B7C3"/>
<path d="M31.7753 21.7134C31.4765 21.7134 31.1777 22.0122 31.1777 22.5011C31.1777 22.9086 31.3679 23.2888 31.7753 23.2888C32.0741 23.2888 32.3729 22.99 32.3729 22.5011C32.2914 22.0937 32.0741 21.7134 31.7753 21.7134Z" fill="#B0B7C3"/>
<path d="M10.7236 29.455C10.615 29.3463 10.5335 29.3463 10.4248 29.455C10.3162 29.455 10.2347 29.455 10.126 29.455C9.93589 29.455 9.71858 29.3463 9.63709 29.1562C9.5556 28.966 9.52844 28.6672 9.63709 28.2598L9.74575 28.0697C10.0445 27.4721 10.452 26.5757 9.93589 25.6793C9.52844 24.9731 9.0395 24.5928 8.33326 24.4841C7.62702 24.3755 6.94794 24.6743 6.54049 25.1904C5.83425 25.9781 5.75276 26.9831 5.83425 27.3634C5.83425 27.4721 5.9429 27.5536 6.02439 27.5536C6.13304 27.5536 6.32319 27.4449 6.43184 27.1461V27.0375C6.43184 26.8473 6.54049 26.63 6.73063 26.3312C6.92078 26.0324 7.21957 25.8423 7.51837 25.8423C7.81716 25.7336 8.22461 25.8423 8.5234 26.0324C9.01234 26.3312 9.22965 26.9288 9.01234 27.5264C8.71355 27.8252 8.60489 28.3141 8.60489 28.8302C8.71355 29.7266 9.31113 30.1341 9.80007 30.2155C10.289 30.2155 10.6965 29.9168 10.6965 29.7266C10.8051 29.5636 10.7236 29.5636 10.7236 29.455Z" fill="#B0B7C3"/>
<path d="M39.6249 27.7708C39.6249 27.6622 39.5163 27.2819 39.3261 26.6843L38.9187 25.7879C39.6249 24.7829 39.6249 23.805 39.5163 23.3161C39.4076 22.7185 39.1088 22.1209 38.6199 21.5233C38.131 20.9257 36.9358 20.3281 35.4418 19.9207L34.6541 19.7305C34.6541 19.7305 34.6541 17.8291 34.5454 17.0414C34.5454 16.4438 34.4368 15.5474 34.138 14.651C33.8392 13.4558 33.2416 12.3693 32.4539 11.6631C34.4368 9.57151 35.7406 7.18115 35.7406 5.19824C35.7406 1.42256 31.0685 0.22738 25.2013 2.61774L24.0061 3.10668C24.0061 3.10668 21.8331 0.933623 21.7244 0.933623C15.2867 -4.82497 -5.27577 18.1279 1.27055 23.6964L2.65587 24.8915C2.24842 25.8966 2.16694 26.9831 2.24842 28.1783C2.43857 29.6723 3.25346 31.1662 4.42148 32.3614C5.61666 33.4479 7.19212 34.1542 8.79475 34.1542C11.3752 40.1301 17.2425 43.6884 24.0876 43.9057C31.4488 44.0959 37.6964 40.619 40.2769 34.453C40.467 34.0455 41.1732 32.0626 41.1732 30.2698C41.3362 28.4499 40.3312 27.7708 39.6249 27.7708ZM9.4195 32.4429C9.22936 32.4429 8.93056 32.5515 8.71326 32.4429C6.5402 32.3342 4.04119 30.3513 3.85105 27.961C3.66091 25.3805 4.93758 23.3976 7.32794 22.8815C7.62673 22.7728 7.92553 22.7728 8.33297 22.7728C9.63681 22.8815 11.6197 23.8593 12.1087 26.7386C12.4889 29.4549 11.9185 32.0354 9.4195 32.4429ZM6.94765 21.306C5.45368 21.6048 4.17701 22.3925 3.36212 23.5877C2.87318 23.1803 1.97679 22.3925 1.86814 22.0937C0.564309 19.7034 3.25346 14.9498 5.15488 12.3422C9.7183 5.79583 16.9709 0.824971 20.2576 1.69419C20.8552 1.88433 22.648 3.9759 22.648 3.9759C22.648 3.9759 19.2797 5.87732 16.1831 8.45782C12 11.5544 8.82191 16.2265 6.94765 21.306ZM30.3895 31.4379L30.4981 31.3292C30.4981 31.2206 30.3895 31.2206 30.3895 31.2206C30.3895 31.2206 26.9126 31.7095 23.6258 30.5143C24.0333 29.3191 24.9297 29.7266 26.3965 29.9167C28.977 30.1069 31.3673 29.7266 33.0514 29.2105C34.5454 28.803 36.5283 27.9066 38.0223 26.7386C38.5112 27.8252 38.7286 29.129 38.7286 29.129C38.7286 29.129 39.136 29.0203 39.4348 29.2376C39.7336 29.4278 39.9237 29.8352 39.8422 30.8403C39.5434 32.8232 38.6471 34.3172 37.3704 35.8111C36.5827 36.7075 35.469 37.4952 34.301 38.0928C33.7034 38.3916 32.9971 38.6904 32.318 38.8806C26.9397 40.5647 21.5886 38.7719 19.9045 34.6974C19.7958 34.3986 19.6057 34.0998 19.6057 33.6924C18.8994 31.0032 19.497 27.8252 21.5071 25.8422C21.6158 25.7336 21.6973 25.5435 21.6973 25.3533C21.6973 25.1632 21.5886 25.0545 21.5071 24.9459C20.8009 23.9408 18.4377 22.2567 18.9266 18.97C19.2254 16.5796 21.317 15.0041 23.1912 15.0856H23.6802C24.4679 15.0856 25.2828 15.2758 25.8532 15.2758C26.9397 15.2758 28.0263 15.1671 29.2214 14.1892C29.6289 13.8905 29.9277 13.5917 30.5253 13.483C30.6339 13.483 30.7154 13.3744 31.0142 13.483C31.313 13.483 31.6118 13.5917 31.8019 13.7818C32.807 14.488 32.8885 15.9549 32.9971 17.15C32.9971 17.8563 33.1058 19.4317 33.1058 19.8392C33.2144 20.8442 33.4046 21.0344 34.0022 21.2245C34.301 21.3332 34.5998 21.4146 35.0072 21.5233C36.311 21.9307 37.0988 22.2295 37.5877 22.7185C37.8865 23.0173 37.9951 23.3161 38.0766 23.6149C38.2668 24.7014 37.1803 26.0867 34.4911 27.3905C31.5032 28.7759 28.0263 29.0747 25.5544 28.7759L24.658 28.6672C22.6751 28.3684 21.5886 30.9489 22.7566 32.633C23.5443 33.7196 25.6359 34.5345 27.6188 34.5345C32.3995 34.5345 36.0666 32.5515 37.3704 30.7588L37.479 30.5686C37.5877 30.46 37.479 30.3785 37.3704 30.46C36.2839 31.2477 31.313 34.2357 26.0434 33.3393C26.0434 33.3393 25.4458 33.2306 24.8482 33.0405C24.3592 32.8503 23.4629 32.4429 23.2456 31.4379C27.7003 32.7417 30.3895 31.4379 30.3895 31.4379ZM15.4769 12.3693C17.0795 10.4679 19.1439 8.78377 20.9367 7.88739C21.0453 7.88739 21.0453 7.8874 21.0453 7.99605C20.9367 8.29484 20.6379 8.78378 20.5564 9.19123C20.5564 9.29988 20.665 9.29988 20.665 9.29988C21.7516 8.51215 23.7345 7.69725 25.4458 7.61576C25.5544 7.61576 25.5544 7.72442 25.5544 7.72442C25.2556 7.91456 25.0655 8.21335 24.7667 8.51215C24.7667 8.51215 24.7667 8.6208 24.8753 8.6208C26.0705 8.6208 27.7546 9.02825 28.8412 9.70732C28.9498 9.70732 28.8412 9.89747 28.7325 9.89747C27.0484 9.49002 24.3592 9.19123 21.4799 9.89747C18.8994 10.4951 16.998 11.5001 15.6127 12.478C15.4769 12.4508 15.3954 12.4508 15.4769 12.3693Z" fill="#B0B7C3"/>
<path d="M157.702 16.8237C155.23 16.8237 154.116 18.6165 153.627 19.703C153.329 20.4093 153.329 20.5994 153.138 20.5994C152.84 20.5994 153.03 20.0018 153.247 19.4042C153.546 18.1004 153.356 17.1225 153.356 17.1225H149.879V33.8279H154.66V28.5582C155.257 29.5633 156.262 30.5411 157.838 30.5411C161.315 30.5411 162.999 27.6618 162.999 23.696C162.972 19.2141 160.88 16.8237 157.702 16.8237ZM156.425 27.363C155.339 27.363 154.524 25.9777 154.524 24.0763C154.524 22.1749 155.312 20.7895 156.425 20.7895C157.729 20.7895 158.327 21.9847 158.327 24.0763C158.299 26.2765 157.811 27.363 156.425 27.363Z" fill="#B0B7C3"/>
<path d="M63.2018 16.8238C61.1102 16.8238 60.1323 18.5079 59.6162 19.5129C59.3175 20.1105 59.3175 20.5994 59.0187 20.5994C58.7199 20.5994 58.91 20.192 58.7199 19.2956C58.4211 18.1004 57.416 16.8238 55.3516 16.8238C53.1786 16.8238 52.1735 18.7252 51.7661 19.7031C51.4673 20.4093 51.4673 20.5994 51.2772 20.5994C50.9784 20.5994 51.1685 20.0019 51.3858 19.4043C51.6846 18.1004 51.4945 17.1226 51.4945 17.1226H48.0176V30.2424H52.6896V23.696C52.6896 22.3922 53.1786 20.8167 54.1836 20.8167C55.2701 20.8167 55.4874 21.6045 55.4874 23.0984V30.2424H60.2682V23.696C60.2682 22.5009 60.7571 20.8167 61.7621 20.8167C62.8487 20.8167 63.066 22.0119 63.066 23.0984V30.1609H67.6294V22.4194C67.5751 19.024 66.3799 16.8238 63.2018 16.8238ZM143.904 16.8238C141.812 16.8238 140.834 18.5079 140.318 19.5129C140.019 20.1105 140.019 20.5994 139.72 20.5994C139.422 20.5994 139.612 20.1105 139.422 19.2956C139.014 18.1004 138.226 16.8238 136.053 16.8238C133.88 16.8238 132.875 18.7252 132.468 19.7031C132.169 20.4093 132.169 20.5994 131.979 20.5994C131.68 20.5994 131.87 20.0019 132.088 19.4043C132.386 18.1004 132.196 17.1226 132.196 17.1226H128.719V30.2424H133.5V23.696C133.5 22.3922 133.989 20.8167 134.994 20.8167C136.081 20.8167 136.298 21.6045 136.298 23.0984V30.2424H141.079V23.696C141.079 22.5009 141.568 20.8167 142.573 20.8167C143.659 20.8167 143.876 22.0119 143.876 23.0984V30.1609H148.548V22.4194C148.277 19.024 147.082 16.8238 143.904 16.8238ZM75.724 16.8238C72.057 16.8238 69.4493 18.1276 69.4493 18.1276V22.0934C69.4493 22.0934 72.3286 20.4093 74.719 20.4093C76.6204 20.4093 76.8105 21.4143 76.7019 22.3107C76.7019 22.3107 76.2129 22.2021 74.5288 22.2021C70.6445 22.2021 68.6616 23.9948 68.6616 26.7655C68.6616 29.4546 70.8346 30.5412 72.7361 30.5412C75.4252 30.5412 76.6204 28.7484 77.0007 27.852C77.2995 27.2544 77.2995 26.847 77.4896 26.847C77.7884 26.847 77.6798 27.1458 77.6798 27.7434C77.6798 28.7484 77.6798 29.5361 77.8699 30.2152H81.4826V23.7504C81.3739 19.7031 79.9886 16.8238 75.724 16.8238ZM74.5288 27.1729C73.4423 27.4717 72.8447 27.0643 72.8447 26.3852C72.8447 25.3802 73.9312 24.8912 75.4252 24.8912C76.1315 24.8912 76.729 24.9999 76.729 24.9999C76.7019 25.3802 75.724 26.8741 74.5288 27.1729ZM89.2241 13.1567H94.0048V30.2424H89.2241C89.2241 30.1609 89.2241 13.1567 89.2241 13.1567ZM99.2745 23.696C99.2745 22.5009 100.361 21.4143 102.344 21.4143C104.517 21.4143 106.31 22.5009 106.717 22.7182V18.1276C106.717 18.1276 105.332 16.8238 101.936 16.8238C98.3509 16.8238 95.3901 18.9153 95.3901 23.4787C95.3901 28.0422 98.0793 30.5412 101.936 30.5412C104.924 30.5412 106.799 28.857 106.799 28.857V24.4838C106.201 24.7826 104.626 25.8691 102.425 25.8691C100.062 25.9777 99.2745 24.8912 99.2745 23.696ZM116.36 16.8238C113.589 16.8238 112.584 19.4043 112.394 19.8932C112.204 20.3821 112.095 20.5994 111.905 20.5994C111.607 20.5994 111.797 20.0018 111.905 19.7031C112.095 18.9968 112.612 17.3127 112.612 15.1396C112.612 13.6457 112.421 13.1567 112.421 13.1567H108.347V30.2424H113.128V23.696C113.128 22.6095 113.535 20.8167 114.73 20.8167C115.735 20.8167 116.034 21.523 116.034 22.9898V30.2424H120.815V23.2886C120.625 19.9204 120.136 16.8238 116.36 16.8238ZM122.227 17.1226V30.2424H127.008V17.1226C127.008 17.1226 126.22 17.6115 124.618 17.6115C123.015 17.53 122.227 17.1226 122.227 17.1226Z" fill="#B0B7C3"/>
<path d="M124.618 16.7423C126.208 16.7423 127.497 15.891 127.497 14.8409C127.497 13.7907 126.208 12.9395 124.618 12.9395C123.027 12.9395 121.738 13.7907 121.738 14.8409C121.738 15.891 123.027 16.7423 124.618 16.7423Z" fill="#B0B7C3"/>
<path d="M82.9766 17.1226V30.2424H87.7301V17.1226C87.7301 17.1226 86.9424 17.6115 85.3398 17.6115C85.3398 17.53 82.9766 17.1226 82.9766 17.1226Z" fill="#B0B7C3"/>
<path d="M85.3402 16.7423C86.9304 16.7423 88.2195 15.891 88.2195 14.8409C88.2195 13.7907 86.9304 12.9395 85.3402 12.9395C83.75 12.9395 82.4609 13.7907 82.4609 14.8409C82.4609 15.891 83.75 16.7423 85.3402 16.7423Z" fill="#B0B7C3"/>
</svg>
