<svg width="132" height="42" viewBox="0 0 132 42" fill="none" xmlns="http://www.w3.org/2000/svg">
<g clip-path="url(#clip0)">
<path d="M42.2227 30.19L43.8694 26.5268C45.6478 27.79 48.0191 28.4847 50.3903 28.4847C52.1029 28.4847 53.2227 27.8531 53.2227 26.9058C53.2227 24.19 42.8813 26.3373 42.8155 19.5163C42.8155 16.0426 45.9771 13.4531 50.5221 13.4531C53.2227 13.4531 55.9233 14.0847 57.8334 15.5373L56.3185 19.2637C54.54 18.19 52.3664 17.4321 50.3245 17.4321C48.9412 17.4321 47.9532 18.0637 47.9532 18.8847C47.9532 21.5373 58.3604 20.0847 58.4921 26.59C58.4921 30.1268 55.3963 32.59 50.9173 32.59C47.4921 32.5268 44.528 31.7689 42.2227 30.19Z" fill="#B0B7C3"/>
<path d="M105.522 25.2005C104.665 26.59 103.15 27.5373 101.372 27.5373C98.7372 27.5373 96.6294 25.5163 96.6294 22.99C96.6294 20.4637 98.7372 18.4426 101.372 18.4426C103.15 18.4426 104.665 19.39 105.522 20.7794L110.067 18.3794C108.354 15.4742 105.126 13.4531 101.372 13.4531C95.839 13.4531 91.4258 17.7479 91.4258 22.99C91.4258 28.2321 95.9048 32.5268 101.372 32.5268C105.126 32.5268 108.354 30.5689 110.067 27.6005L105.522 25.2005Z" fill="#B0B7C3"/>
<path d="M66.3307 5.49512H60.666V32.2109H66.3307V5.49512Z" fill="#B0B7C3"/>
<path d="M112.24 5.49512V32.1477H117.971V24.1899L124.689 32.1477H132.001L123.438 22.6741L131.342 13.7688H124.426L117.971 21.1583V5.49512H112.24Z" fill="#B0B7C3"/>
<path d="M83.2595 25.2633C82.4032 26.5896 80.7565 27.537 78.8463 27.537C76.2116 27.537 74.1038 25.516 74.1038 22.9896C74.1038 20.4633 76.2116 18.4423 78.8463 18.4423C80.7565 18.4423 82.4691 19.4528 83.2595 20.7791V25.2633ZM83.2595 13.7686V15.916C82.3373 14.4002 80.0319 13.3896 77.5948 13.3896C72.5888 13.3896 68.6367 17.6212 68.6367 22.9265C68.6367 28.2318 72.5888 32.5265 77.5948 32.5265C80.0319 32.5265 82.3373 31.4528 83.2595 30.0002V32.1475H88.9242V13.7686H83.2595Z" fill="#B0B7C3"/>
<path d="M7.0479 25.2634C7.0479 27.095 5.46707 28.6108 3.55689 28.6108C1.64671 28.6108 0 27.095 0 25.2634C0 23.4318 1.58084 21.916 3.49102 21.916H6.98204V25.2634H7.0479Z" fill="#B0B7C3"/>
<path d="M8.82617 25.2634C8.82617 23.4318 10.407 21.916 12.3172 21.916C14.2274 21.916 15.8082 23.3686 15.8082 25.2634V33.6634C15.8082 35.495 14.2274 37.0108 12.3172 37.0108C10.407 37.0108 8.82617 35.495 8.82617 33.6634V25.2634Z" fill="#B0B7C3"/>
<path d="M12.3172 11.7475C10.407 11.7475 8.82617 10.2317 8.82617 8.4001C8.82617 6.56852 10.407 5.05273 12.3172 5.05273C14.2274 5.05273 15.8082 6.56852 15.8082 8.4001V11.7475H12.3172Z" fill="#B0B7C3"/>
<path d="M12.3174 13.4526C14.2275 13.4526 15.8084 14.9684 15.8084 16.8C15.8084 18.6316 14.2275 20.1474 12.3174 20.1474H3.49102C1.58084 20.1474 0 18.6316 0 16.8C0 14.9684 1.58084 13.4526 3.49102 13.4526H12.3174Z" fill="#B0B7C3"/>
<path d="M26.3477 16.8005C26.3477 14.9689 27.9285 13.4531 29.8387 13.4531C31.7488 13.4531 33.3297 14.9689 33.3297 16.8005C33.3297 18.6321 31.7488 20.1479 29.8387 20.1479H26.3477V16.8005Z" fill="#B0B7C3"/>
<path d="M24.6344 16.8003C24.6344 18.6319 23.0535 20.1476 21.1434 20.1476C19.2332 20.1476 17.6523 18.6319 17.6523 16.8003V8.33711C17.6523 6.50554 19.2332 4.98975 21.1434 4.98975C23.0535 4.98975 24.6344 6.50554 24.6344 8.33711V16.8003Z" fill="#B0B7C3"/>
<path d="M21.1434 30.2529C23.0535 30.2529 24.6344 31.7687 24.6344 33.6003C24.6344 35.4319 23.0535 36.9477 21.1434 36.9477C19.2332 36.9477 17.6523 35.4319 17.6523 33.6003V30.2529H21.1434Z" fill="#B0B7C3"/>
<path d="M21.1434 28.6108C19.2332 28.6108 17.6523 27.095 17.6523 25.2634C17.6523 23.4318 19.2332 21.916 21.1434 21.916H29.9697C31.8799 21.916 33.4607 23.4318 33.4607 25.2634C33.4607 27.095 31.8799 28.6108 29.9697 28.6108H21.1434Z" fill="#B0B7C3"/>
</g>
<defs>
<clipPath id="clip0">
<rect width="132" height="42" fill="white"/>
</clipPath>
</defs>
</svg>
