<svg width="146" height="32" viewBox="0 0 146 32" fill="none" xmlns="http://www.w3.org/2000/svg">
<path fill-rule="evenodd" clip-rule="evenodd" d="M36.0117 8.62374H42.4465V27.2791H47.7937V8.62374H54.2292V3.9012H36.0117V8.62374ZM49.335 27.2791H54.9542L56.5556 22.5573H63.1104L64.6523 27.2791H70.1813L62.3861 3.90201H56.5399L49.335 27.2791ZM61.5667 18.3085H57.6641L59.6255 12.6819L61.5667 18.3085ZM70.635 27.2791H75.8005V18.8635H79.5176C80.3019 18.8635 81.2125 18.7162 81.6778 19.3741C82.1432 20.032 82.0996 21.1772 82.0833 22.3611C82.0653 23.545 82.0707 24.7658 82.3311 25.6368C82.59 26.5078 83.0561 27.2791 83.732 27.2791H88.3987C87.8631 26.6978 87.4829 25.9827 87.2963 25.2041C87.1123 24.4208 87.1382 23.5674 87.1719 22.6217C87.2048 21.6767 87.2445 20.64 87.1382 19.7899C87.0328 18.9382 86.7832 18.2739 86.3749 17.7479C85.9614 17.2215 85.4053 16.8339 84.7775 16.6348C85.7629 15.9054 86.5897 14.9346 87.0925 13.9052C87.5935 12.8766 87.7698 11.79 87.8363 10.7139C87.9037 9.63794 87.8596 8.57308 87.5305 7.56133C87.1996 6.54959 86.5845 5.59013 85.7567 4.93225C84.9202 4.27015 83.8969 3.90836 82.8426 3.90201H70.6342V27.2791H70.635ZM81.8003 9.07492C82.4216 9.49874 82.8005 10.2765 82.7911 11.0638C82.7817 11.466 82.6809 11.8602 82.4969 12.2149C82.3129 12.5696 82.0508 12.8747 81.7317 13.1058C81.083 13.5658 80.2122 13.4677 79.4022 13.4677H75.7966V8.84813H79.6002C80.3595 8.84813 81.1774 8.65109 81.8003 9.07492ZM90.5429 8.03906C89.7662 9.22292 89.1935 10.6126 88.8825 12.39C88.5723 14.1674 88.5222 16.3332 88.8021 18.2233C89.0803 20.114 89.6894 21.7282 90.4297 22.9795C91.1692 24.231 92.04 25.118 92.9886 25.8756C93.938 26.6332 94.9609 27.2606 96.1151 27.6129C97.2788 27.9599 98.5012 28.0466 99.6994 27.867C100.853 27.69 101.876 27.2582 102.673 26.8842C103.469 26.5094 104.041 26.1925 104.576 25.821L105.483 27.2783H108.838L108.83 14.1714H99.2226V18.7444H103.728C103.903 19.5334 103.798 20.3971 103.41 21.1162C103.021 21.8343 102.349 22.4077 101.395 22.813C100.442 23.2176 99.2087 23.4532 98.007 23.0777C96.8071 22.7021 95.6408 21.7153 94.8728 20.5853C94.1056 19.457 93.735 18.1846 93.5717 16.7764C93.4111 15.369 93.4568 13.8248 93.7834 12.4785C94.11 11.1322 94.7182 9.98212 95.481 9.15376C96.2455 8.32537 97.1656 7.8195 98.3241 7.60316C99.4817 7.38681 100.879 7.46161 101.809 7.99724C102.741 8.53286 103.207 9.52852 103.476 10.1615C103.743 10.7944 103.815 11.0638 103.824 11.3405H108.65C108.579 10.3062 108.294 9.29527 107.718 8.14039C107.142 6.98549 106.276 5.68824 105.046 4.77381C103.816 3.85939 102.222 3.32938 100.744 3.12832C99.385 2.93658 98.0018 3.03097 96.6783 3.40579C95.4551 3.75564 94.3657 4.32746 93.3316 5.10114C92.2984 5.87724 91.3187 6.85521 90.5429 8.03906ZM126.693 27.2791V22.5573H116.044V17.1335L125.196 17.1142L125.198 12.8323H116.044V8.62455H126.693V3.90201L110.716 3.90523L110.742 27.2791H126.693ZM127.464 8.62374H133.901V27.2791H139.247V8.62374H145.683V3.9012H127.464V8.62374ZM141.827 26.2303H142.121V26.1716C142.078 26.1724 142.019 26.1579 141.994 26.0993L141.77 25.7164C141.982 25.6465 142.068 25.3642 141.848 25.2138C141.752 25.1607 141.669 25.1526 141.546 25.1494H141.003V25.2017C141.063 25.1864 141.173 25.233 141.15 25.3143C141.145 25.5853 141.163 25.8394 141.138 26.1274C141.091 26.1885 141.068 26.1652 141.008 26.1716V26.2303H141.539V26.1716C141.482 26.1861 141.369 26.141 141.392 26.059V25.7164H141.539L141.827 26.2303ZM141.391 25.6626V25.221C141.521 25.2146 141.722 25.2411 141.722 25.3995C141.733 25.4631 141.722 25.6465 141.57 25.6585C141.516 25.6674 141.45 25.6618 141.391 25.6626ZM141.519 26.7185C141.706 26.7185 141.909 26.6646 142.103 26.5223C142.577 26.117 142.648 25.6111 142.328 25.0923C141.933 24.5977 141.442 24.5245 140.931 24.8583C140.453 25.2628 140.383 25.7687 140.705 26.2882C140.933 26.6019 141.232 26.7153 141.519 26.7185ZM141.519 26.6059C141.354 26.6059 141.174 26.5577 141.002 26.4314C140.577 26.0695 140.513 25.6199 140.801 25.1518C141.149 24.7151 141.588 24.6516 142.037 24.9467C142.462 25.3071 142.526 25.7598 142.24 26.2223C142.037 26.5014 141.77 26.6035 141.519 26.6059Z" fill="#B0B7C3"/>
<path fill-rule="evenodd" clip-rule="evenodd" d="M18.0051 11.4783C17.2139 11.0233 16.3002 10.7788 15.3865 10.7788C14.4727 10.7788 13.559 11.0233 12.7678 11.4783C11.9724 11.9379 11.3113 12.5969 10.8501 13.3897C10.3921 14.184 10.1502 15.0838 10.1484 15.9999C10.1484 16.9114 10.3936 17.8223 10.8501 18.6108C11.3074 19.3994 11.9759 20.0665 12.7678 20.5216C13.5597 20.9765 14.4727 21.2209 15.3865 21.2209C16.3002 21.2209 17.2139 20.9773 18.0051 20.5216C18.7962 20.0657 19.4655 19.3994 19.9227 18.6108C20.381 17.8163 20.6229 16.9163 20.6244 15.9999C20.6244 15.0891 20.38 14.1784 19.9227 13.3897C19.4616 12.5969 18.8005 11.9379 18.0051 11.4783Z" fill="#B0B7C3"/>
<path fill-rule="evenodd" clip-rule="evenodd" d="M29.0176 7.9994C27.6616 5.58193 25.6753 3.53835 23.3264 2.14307C20.9775 0.747786 18.2637 0 15.5507 0C12.8376 0 10.1254 0.747786 7.77574 2.14307C5.41449 3.55108 3.45223 5.57 2.08372 7.9994C0.726806 10.4169 0 13.2083 0 15.9996C0 18.7909 0.726806 21.5823 2.08372 23.9998C3.45177 26.4296 5.41414 28.4486 7.77574 29.8561C10.1411 31.2565 12.8217 31.9956 15.5507 32C18.2637 32 20.9767 31.2522 23.3264 29.8561C25.676 28.4609 27.6616 26.4172 29.0176 23.9998C30.3738 21.5823 31.1006 18.7909 31.1006 15.9996C31.1006 13.2083 30.3738 10.4161 29.0176 7.9994ZM24.461 21.2903C23.5592 22.8922 22.2654 24.2233 20.7085 25.1512C19.1485 26.074 17.3813 26.5611 15.5819 26.5641C13.7937 26.5641 12.0055 26.0715 10.456 25.1512C8.9073 24.2308 7.59793 22.8837 6.70346 21.2903C5.80899 19.6968 5.33017 17.8563 5.33017 16.0164C5.33017 14.1758 5.80899 12.3353 6.70346 10.7418C7.59793 9.14836 8.9073 7.80042 10.456 6.88092C12.0155 5.95789 13.7827 5.47078 15.5819 5.46799C17.3708 5.46799 19.159 5.96063 20.7085 6.88092C22.2653 7.80907 23.559 9.14009 24.461 10.7418C25.3586 12.3466 25.8322 14.165 25.8352 16.0164C25.8318 17.8676 25.3581 19.6856 24.461 21.2903Z" fill="#B0B7C3"/>
</svg>
