<svg width="111" height="37" viewBox="0 0 111 37" fill="none" xmlns="http://www.w3.org/2000/svg">
<g clip-path="url(#clip0)">
<path d="M17.4476 8.06762V20.9203C17.4476 25.2045 15.5644 26.9849 11.1332 26.9849C6.7021 26.9849 4.81886 25.2045 4.81886 20.9203V7.51123H0.553892C0.166168 7.51123 0 7.67815 0 8.06762V21.0872C0 28.2646 4.54192 30.7684 11.1332 30.7684C17.7246 30.7684 22.2665 28.2646 22.2665 21.0872V7.51123H18.0015C17.6692 7.51123 17.4476 7.67815 17.4476 8.06762Z" fill="#B0B7C3"/>
<path d="M79.3164 11.2391C79.6487 11.2391 79.8149 11.1278 79.9256 10.8496L81.1442 7.78943C81.1996 7.62251 81.1442 7.51123 80.978 7.51123H63.8074C62.2011 7.51123 61.5918 8.01198 61.5918 9.12476V29.0436C61.5918 29.9894 62.0349 30.3789 63.3089 30.3789H79.3164C79.6487 30.3789 79.8149 30.2676 79.9256 29.9894L81.1442 26.9293C81.1996 26.7624 81.1442 26.6511 80.978 26.6511H66.2999V22.5894C66.2999 21.1984 67.0753 20.5308 69.1247 20.5308H75.4945C75.8268 20.5308 75.993 20.4195 76.1038 20.1413L77.267 17.1924C77.3223 17.0255 77.267 16.9142 77.1008 16.9142H66.2445V11.2391H79.3164Z" fill="#B0B7C3"/>
<path d="M44.5889 26.7067H36.1697V22.5338C36.1697 21.1428 36.9452 20.4751 38.9946 20.4751H44.5889C47.2476 20.4751 48.023 21.5323 48.023 23.5909C48.023 25.7052 47.2476 26.7067 44.5889 26.7067ZM36.1697 11.1834H43.7027C46.1952 11.1834 46.9152 12.1293 46.9152 14.1323C46.9152 16.0797 46.1952 17.0812 43.7027 17.0812H36.1697V11.1834ZM49.0754 18.3052C50.9586 17.3037 51.7341 15.4676 51.7341 13.2977C51.7341 8.23454 47.6353 7.51123 43.3703 7.51123H33.6218C32.0155 7.51123 31.4062 8.01198 31.4062 9.12476V29.0436C31.4062 29.9894 31.8494 30.3789 33.1233 30.3789H45.032C49.5185 30.3789 52.7311 28.5984 52.7311 24.036C52.7865 21.3097 51.6233 19.0285 49.0754 18.3052Z" fill="#B0B7C3"/>
<path d="M102.027 18.1383H94.1065V11.1834H102.027C104.963 11.1834 105.627 12.3518 105.627 14.633C105.627 16.9699 105.018 18.1383 102.027 18.1383ZM110.945 29.9894L105.849 21.1984C108.397 20.5308 110.446 18.8616 110.446 14.5774C110.446 9.01349 107.012 7.51123 101.363 7.51123H91.614C90.0077 7.51123 89.3984 8.01198 89.3984 9.12476V29.8225C89.3984 30.212 89.5646 30.3789 89.9523 30.3789H94.1065V23.7022C94.1065 22.3112 94.882 21.6436 96.9314 21.6436H101.141L105.738 29.9894C105.904 30.212 106.015 30.3789 106.348 30.3789H110.668C111.056 30.3789 111.056 30.1007 110.945 29.9894Z" fill="#B0B7C3"/>
</g>
<defs>
<clipPath id="clip0">
<rect width="111" height="37" fill="white"/>
</clipPath>
</defs>
</svg>
