<svg xmlns="http://www.w3.org/2000/svg" width="46" height="46" fill="#377dff"  fill-rule="evenodd" viewBox="0 0 46 46"><path d="M5.646 8.361h31.992a1.88 1.88 0 0 1 1.882 1.882v3.764a1.88 1.88 0 0 1-1.882 1.882H5.646a1.88 1.88 0 0 1-1.882-1.882v-3.764a1.88 1.88 0 0 1 1.882-1.882h0zm13.173 11.291h18.819a1.88 1.88 0 0 1 1.882 1.882v3.764a1.88 1.88 0 0 1-1.882 1.882H18.819a1.88 1.88 0 0 1-1.882-1.882v-3.764a1.88 1.88 0 0 1 1.882-1.882h0zm0 11.291h18.819a1.88 1.88 0 0 1 1.882 1.882v3.764a1.88 1.88 0 0 1-1.882 1.882H18.819a1.88 1.88 0 0 1-1.882-1.882v-3.763a1.88 1.88 0 0 1 1.882-1.882v-.001z"/><path opacity=".3" d="M4 21v-1c0-.276.098-.512.293-.707S4.724 19 5 19h7c.276 0 .512.098.707.293S13 19.723 13 20v17c0 .276-.098.512-.293.707S12.276 38 12 38H5c-.276 0-.512-.098-.707-.293S4 37.276 4 37V21z"/></svg>