<svg width="46" height="45" viewBox="0 0 46 45" fill="none" xmlns="http://www.w3.org/2000/svg">
<path fill-rule="evenodd" clip-rule="evenodd" d="M24.5681 27.6909L28.7071 23.5519C29.8492 22.4078 30.1312 20.6612 29.4071 19.2159L29.1731 18.7469C28.449 17.3015 28.731 15.555 29.8731 14.4109L35.0061 9.27787C35.2195 9.06606 35.5215 8.96929 35.8183 9.01756C36.1151 9.06584 36.3708 9.25334 36.5061 9.52187L38.5901 13.6689C40.1766 16.8412 39.555 20.6728 37.0471 23.1809L25.7801 34.4469C23.05 37.1768 19.0118 38.1299 15.3491 36.9089L10.8141 35.3979C10.5053 35.295 10.2718 35.0395 10.197 34.7227C10.1222 34.4059 10.2169 34.073 10.4471 33.8429L15.4261 28.8629C16.5702 27.7207 18.3167 27.4388 19.7621 28.1629L20.2311 28.3969C21.678 29.1199 23.4252 28.8355 24.5681 27.6909Z" fill="white"/>
<path opacity="0.3" fill-rule="evenodd" clip-rule="evenodd" d="M26.5748 11.2061L26.2158 14.9451C23.4271 14.6751 20.6634 15.6643 18.6793 17.6426C16.6952 19.6208 15.698 22.3816 15.9598 25.1711L12.2198 25.5201C11.8539 21.6158 13.2498 17.7518 16.0267 14.9829C18.8036 12.2139 22.6715 10.829 26.5748 11.2061L26.5748 11.2061ZM27.2318 3.72214L26.8838 7.45814C21.8755 6.98741 16.9178 8.77227 13.3588 12.3274C9.7998 15.8825 8.00954 20.8383 8.47483 25.8471L4.73383 26.1901C4.16965 20.0705 6.35906 14.0173 10.7075 9.67449C15.0559 5.33168 21.1119 3.15007 27.2308 3.72213L27.2318 3.72214Z" fill="white"/>
</svg>
