<svg width="45" height="45" viewBox="0 0 45 45" fill="none" xmlns="http://www.w3.org/2000/svg">
<path fill-rule="evenodd" clip-rule="evenodd" d="M24.5642 27.6909L28.7032 23.5519C29.8453 22.4078 30.1273 20.6612 29.4032 19.2159L29.1692 18.7469C28.4451 17.3015 28.727 15.555 29.8692 14.4109L35.0022 9.27787C35.2156 9.06606 35.5176 8.96929 35.8144 9.01756C36.1112 9.06584 36.3669 9.25334 36.5022 9.52187L38.5862 13.6689C40.1727 16.8412 39.5511 20.6728 37.0432 23.1809L25.7762 34.4469C23.0461 37.1768 19.0079 38.1299 15.3452 36.9089L10.8102 35.3979C10.5014 35.295 10.2679 35.0395 10.1931 34.7227C10.1183 34.4059 10.213 34.073 10.4432 33.8429L15.4222 28.8629C16.5663 27.7207 18.3128 27.4388 19.7582 28.1629L20.2272 28.3969C21.6741 29.1199 23.4213 28.8355 24.5642 27.6909Z" fill="#FF715B"/>
<path opacity="0.3" fill-rule="evenodd" clip-rule="evenodd" d="M26.5729 11.2061L26.2139 14.9451C23.4251 14.6751 20.6614 15.6643 18.6774 17.6426C16.6933 19.6208 15.696 22.3816 15.9579 25.1711L12.2179 25.5201C11.8519 21.6158 13.2479 17.7518 16.0248 14.9829C18.8017 12.2139 22.6696 10.829 26.5729 11.2061L26.5729 11.2061ZM27.2299 3.72214L26.8819 7.45814C21.8735 6.98741 16.9158 8.77227 13.3568 12.3274C9.79784 15.8825 8.00759 20.8383 8.47288 25.8471L4.73188 26.1901C4.1677 20.0705 6.35711 14.0173 10.7055 9.67449C15.0539 5.33168 21.1099 3.15007 27.2289 3.72213L27.2299 3.72214Z" fill="#FF715B"/>
</svg>
