<svg width="40" height="40" viewBox="0 0 40 40" fill="none" xmlns="http://www.w3.org/2000/svg">
<path fill-rule="evenodd" clip-rule="evenodd" d="M14.892 31.376C14.592 33.431 12.497 35.024 9.95195 35.024C7.20395 35.024 4.97595 33.168 4.97595 30.878C4.97595 28.588 7.20395 26.731 9.95195 26.731C10.5134 26.7299 11.0721 26.8093 11.611 26.967L11.611 10.031C11.6011 9.19466 12.1288 8.44636 12.92 8.17497L22.458 5.25797C23.0363 5.08543 23.6623 5.20087 24.141 5.56834C24.6198 5.93582 24.8931 6.5107 24.876 7.11397V10.031C24.7833 10.927 24.105 11.6516 23.2169 11.803C22.1403 12.0603 19.376 12.6133 14.924 13.462V30.962C14.926 31.1006 14.9152 31.2392 14.892 31.376L14.892 31.376Z" fill="white"/>
<path opacity="0.3" fill-rule="evenodd" clip-rule="evenodd" d="M26.539 21.755V18.438C26.5242 17.8358 26.837 17.2729 27.3562 16.9674C27.8754 16.6619 28.5195 16.6619 29.0387 16.9674C29.5579 17.2729 29.8708 17.8358 29.856 18.438V21.755H33.173C34.0731 21.7771 34.7912 22.5132 34.7912 23.4135C34.7912 24.3139 34.0731 25.0499 33.173 25.072H29.856V28.389C29.8338 29.2891 29.0978 30.0073 28.1975 30.0073C27.2971 30.0073 26.5611 29.2891 26.539 28.389L26.539 25.072H23.222C22.6197 25.0868 22.0568 24.774 21.7513 24.2548C21.4458 23.7355 21.4458 23.0915 21.7513 22.5723C22.0568 22.0531 22.6197 21.7402 23.222 21.755L26.539 21.755Z" fill="white"/>
</svg>
