<svg width="40" height="40" viewBox="0 0 40 40" fill="none" xmlns="http://www.w3.org/2000/svg">
<path fill-rule="evenodd" clip-rule="evenodd" d="M14.8921 31.3762C14.5921 33.4312 12.4971 35.0242 9.95207 35.0242C7.20407 35.0242 4.97607 33.1682 4.97607 30.8782C4.97607 28.5882 7.20407 26.7312 9.95207 26.7312C10.5135 26.7301 11.0722 26.8096 11.6111 26.9672L11.6111 10.0312C11.6012 9.1949 12.129 8.44661 12.9201 8.17521L22.4581 5.25821C23.0364 5.08567 23.6624 5.20111 24.1411 5.56859C24.6199 5.93606 24.8932 6.51094 24.8761 7.11421V10.0312C24.7834 10.9273 24.1051 11.6518 23.2171 11.8032C22.1404 12.0605 19.3761 12.6135 14.9241 13.4622V30.9622C14.9261 31.1009 14.9154 31.2395 14.8921 31.3762L14.8921 31.3762Z" fill="#FFBE3D"/>
<path opacity="0.3" fill-rule="evenodd" clip-rule="evenodd" d="M26.539 21.755V18.438C26.5242 17.8358 26.837 17.2729 27.3562 16.9674C27.8754 16.6619 28.5195 16.6619 29.0387 16.9674C29.5579 17.2729 29.8708 17.8358 29.856 18.438V21.755H33.173C34.0731 21.7771 34.7912 22.5132 34.7912 23.4135C34.7912 24.3139 34.0731 25.0499 33.173 25.072H29.856V28.389C29.8338 29.2891 29.0978 30.0073 28.1975 30.0073C27.2971 30.0073 26.5611 29.2891 26.539 28.389L26.539 25.072H23.222C22.6197 25.0868 22.0568 24.774 21.7513 24.2548C21.4458 23.7355 21.4458 23.0915 21.7513 22.5723C22.0568 22.0531 22.6197 21.7402 23.222 21.755L26.539 21.755Z" fill="#FFBE3D"/>
</svg>
