<svg width="46" height="46" viewBox="0 0 46 46" fill="none" xmlns="http://www.w3.org/2000/svg">
<path opacity="0.3" fill-rule="evenodd" clip-rule="evenodd" d="M11.3055 7.95117H34.3525C35.3607 7.94951 36.1946 8.73563 36.2525 9.74217L37.8125 36.2652C37.8731 37.2729 37.5303 38.2634 36.8595 39.018C36.1888 39.7726 35.2454 40.2292 34.2375 40.2872C34.1628 40.2918 34.0885 40.2942 34.0145 40.2942H11.6445C9.5458 40.2942 7.84448 38.5929 7.84448 36.4942C7.84448 36.4195 7.84682 36.3452 7.85148 36.2712L9.40648 9.74217C9.4643 8.73601 10.2977 7.95004 11.3055 7.95117L11.3055 7.95117Z" fill="white"/>
<path fill-rule="evenodd" clip-rule="evenodd" d="M13.3165 13.6582H17.1165C17.1165 16.8117 19.6729 19.3682 22.8265 19.3682C25.98 19.3682 28.5365 16.8117 28.5365 13.6582H32.3365C32.4071 17.1023 30.6101 20.3154 27.6387 22.0582C24.6672 23.801 20.9857 23.801 18.0143 22.0582C15.0428 20.3154 13.2458 17.1023 13.3165 13.6582L13.3165 13.6582Z" fill="white"/>
</svg>
