<svg width="46" height="46" viewBox="0 0 46 46" fill="none" xmlns="http://www.w3.org/2000/svg">
<path opacity="0.3" fill-rule="evenodd" clip-rule="evenodd" d="M11.3057 7.95117H34.3527C35.3609 7.94951 36.1949 8.73563 36.2527 9.74217L37.8127 36.2652C37.8734 37.2729 37.5305 38.2634 36.8598 39.018C36.1891 39.7726 35.2456 40.2292 34.2377 40.2872C34.1631 40.2918 34.0887 40.2942 34.0147 40.2942H11.6447C9.54604 40.2942 7.84473 38.5929 7.84473 36.4942C7.84473 36.4195 7.84706 36.3452 7.85173 36.2712L9.40673 9.74217C9.46454 8.73601 10.2979 7.95004 11.3057 7.95117L11.3057 7.95117Z" fill="#2DCA8C"/>
<path fill-rule="evenodd" clip-rule="evenodd" d="M13.3174 13.6582H17.1174C17.1174 16.8117 19.6739 19.3682 22.8274 19.3682C25.981 19.3682 28.5374 16.8117 28.5374 13.6582H32.3374C32.4081 17.1023 30.6111 20.3154 27.6397 22.0582C24.6682 23.801 20.9867 23.801 18.0152 22.0582C15.0438 20.3154 13.2468 17.1023 13.3174 13.6582L13.3174 13.6582Z" fill="#2DCA8C"/>
</svg>
