<svg width="44" height="44" viewBox="0 0 44 44" fill="none" xmlns="http://www.w3.org/2000/svg">
<path opacity="0.3" fill-rule="evenodd" clip-rule="evenodd" d="M10.9754 5.5918H32.9174L36.5754 11.9918H7.31738L10.9754 5.5918Z" fill="white"/>
<path fill-rule="evenodd" clip-rule="evenodd" d="M10.9754 9.25H32.9174C34.9376 9.25 36.5754 10.8877 36.5754 12.908V34.85C36.5767 35.8211 36.1918 36.7528 35.5057 37.4399C34.8195 38.127 33.8883 38.513 32.9173 38.513H10.9754C10.0044 38.513 9.07317 38.1269 8.38702 37.4398C7.70087 36.7527 7.31606 35.821 7.31739 34.85V12.908C7.31739 10.8877 8.95513 9.25 10.9754 9.25ZM16.4624 16.566C15.4523 16.566 14.6334 17.3849 14.6334 18.395C14.6334 19.4051 15.4523 20.224 16.4624 20.224L27.4354 20.224C28.4455 20.224 29.2644 19.4051 29.2644 18.395C29.2644 17.3849 28.4455 16.566 27.4354 16.566H16.4624Z" fill="white"/>
</svg>
