<svg width="45" height="44" viewBox="0 0 45 44" fill="none" xmlns="http://www.w3.org/2000/svg">
<path opacity="0.3" fill-rule="evenodd" clip-rule="evenodd" d="M10.9764 5.5918H32.9184L36.5764 11.9918H7.31836L10.9764 5.5918Z" fill="#377DFF"/>
<path fill-rule="evenodd" clip-rule="evenodd" d="M10.9764 9.25H32.9184C34.9386 9.25 36.5764 10.8877 36.5764 12.908V34.85C36.5777 35.8211 36.1928 36.7528 35.5067 37.4399C34.8205 38.127 33.8893 38.513 32.9183 38.513H10.9764C10.0053 38.513 9.07415 38.1269 8.388 37.4398C7.70184 36.7527 7.31704 35.821 7.31836 34.85V12.908C7.31836 10.8877 8.9561 9.25 10.9764 9.25ZM16.4634 16.566C15.4532 16.566 14.6344 17.3849 14.6344 18.395C14.6344 19.4051 15.4532 20.224 16.4634 20.224L27.4364 20.224C28.4465 20.224 29.2654 19.4051 29.2654 18.395C29.2654 17.3849 28.4465 16.566 27.4364 16.566H16.4634Z" fill="#377DFF"/>
</svg>
