<svg width="43" height="43" viewBox="0 0 43 43" fill="none" xmlns="http://www.w3.org/2000/svg">
<path fill-rule="evenodd" clip-rule="evenodd" d="M8.958 34.0422H35.833C36.4831 34.0268 37.0906 34.3649 37.4201 34.9255C37.7497 35.4861 37.7497 36.1812 37.4201 36.7418C37.0906 37.3025 36.4831 37.6405 35.833 37.6252H7.167C6.17731 37.6252 5.375 36.8228 5.375 35.8332L5.375 7.16715C5.39799 6.19422 6.1933 5.41748 7.1665 5.41748C8.1397 5.41748 8.93501 6.19422 8.958 7.16715V34.0422Z" fill="white"/>
<path opacity="0.3" fill-rule="evenodd" clip-rule="evenodd" d="M15.6421 26.3091C14.9608 27.0085 13.845 27.0338 13.1327 26.3659C12.4204 25.6981 12.3739 24.5829 13.0281 23.8581L19.7421 16.6911C20.3965 15.993 21.4839 15.9322 22.2121 16.5531L27.5121 21.0781L34.4211 12.3261C35.0341 11.5471 36.1626 11.4125 36.9416 12.0256C37.7206 12.6386 37.8551 13.7671 37.2421 14.5461L29.1771 24.7601C28.8753 25.1422 28.431 25.3851 27.9464 25.4328C27.4618 25.4805 26.9786 25.329 26.6081 25.0131L21.1901 20.3901L15.6421 26.3091Z" fill="white"/>
</svg>
