<svg width="41" height="41" viewBox="0 0 41 41" fill="none" xmlns="http://www.w3.org/2000/svg">
<path opacity="0.3" fill-rule="evenodd" clip-rule="evenodd" d="M21 12V9.5C21 8.80964 21.2441 8.22039 21.7322 7.73223C22.2204 7.24408 22.8096 7 23.5 7C24.1904 7 24.7796 7.24408 25.2678 7.73223C25.7559 8.22039 26 8.80964 26 9.5V26.5C26 27.1904 25.7559 27.7796 25.2678 28.2678C24.7796 28.7559 24.1904 29 23.5 29C22.8096 29 22.2204 28.7559 21.7322 28.2678C21.2441 27.7796 21 27.1904 21 26.5V12Z" fill="#FFBE3D"/>
<path opacity="0.3" fill-rule="evenodd" clip-rule="evenodd" d="M12 20V17.5C12 16.8096 12.2441 16.2204 12.7322 15.7322C13.2204 15.2441 13.8096 15 14.5 15C15.1904 15 15.7796 15.2441 16.2678 15.7322C16.7559 16.2204 17 16.8096 17 17.5V26.5C17 27.1904 16.7559 27.7796 16.2678 28.2678C15.7796 28.7559 15.1904 29 14.5 29C13.8096 29 13.2204 28.7559 12.7322 28.2678C12.2441 27.7796 12 27.1904 12 26.5V20Z" fill="#FFBE3D"/>
<path fill-rule="evenodd" clip-rule="evenodd" d="M8.53017 32.473H34.1182C34.728 32.4725 35.2918 32.7975 35.5969 33.3256C35.902 33.8536 35.902 34.5043 35.5969 35.0324C35.2918 35.5605 34.7281 35.8855 34.1183 35.885H6.82417C6.37067 35.885 5.93583 35.7045 5.61572 35.3832C5.29561 35.062 5.11658 34.6265 5.11817 34.173V6.87902C5.1185 5.93732 5.88213 5.1739 6.82404 5.17383C7.76596 5.17376 8.5297 5.93706 8.53017 6.87897L8.53017 32.473Z" fill="#FFBE3D"/>
<path opacity="0.3" fill-rule="evenodd" clip-rule="evenodd" d="M29 24V21.5C29 20.8096 29.2441 20.2204 29.7322 19.7322C30.2204 19.2441 30.8096 19 31.5 19C32.1904 19 32.7796 19.2441 33.2678 19.7322C33.7559 20.2204 34 20.8096 34 21.5V26.5C34 27.1904 33.7559 27.7796 33.2678 28.2678C32.7796 28.7559 32.1904 29 31.5 29C30.8096 29 30.2204 28.7559 29.7322 28.2678C29.2441 27.7796 29 27.1904 29 26.5V24Z" fill="#FFBE3D"/>
</svg>
