<svg width="43" height="43" viewBox="0 0 43 43" fill="none" xmlns="http://www.w3.org/2000/svg">
<path fill-rule="evenodd" clip-rule="evenodd" d="M8.958 34.0426H35.833C36.4831 34.0273 37.0906 34.3653 37.4201 34.9259C37.7497 35.4866 37.7497 36.1817 37.4201 36.7423C37.0906 37.3029 36.4831 37.641 35.833 37.6256H7.167C6.17731 37.6256 5.375 36.8233 5.375 35.8336L5.375 7.16764C5.39799 6.19471 6.1933 5.41797 7.1665 5.41797C8.1397 5.41797 8.93501 6.19471 8.958 7.16764V34.0426Z" fill="#377DFF"/>
<path opacity="0.3" fill-rule="evenodd" clip-rule="evenodd" d="M15.6421 26.3086C14.9608 27.008 13.845 27.0333 13.1327 26.3654C12.4204 25.6976 12.3739 24.5824 13.0281 23.8576L19.7421 16.6906C20.3965 15.9925 21.4839 15.9318 22.2121 16.5526L27.5121 21.0776L34.4211 12.3256C35.0341 11.5466 36.1626 11.412 36.9416 12.0251C37.7206 12.6381 37.8551 13.7666 37.2421 14.5456L29.1771 24.7596C28.8753 25.1417 28.431 25.3846 27.9464 25.4323C27.4618 25.4801 26.9786 25.3285 26.6081 25.0126L21.1901 20.3896L15.6421 26.3086Z" fill="#377DFF"/>
</svg>
