<svg width="41" height="41" viewBox="0 0 41 41" fill="none" xmlns="http://www.w3.org/2000/svg">
<path opacity="0.3" fill-rule="evenodd" clip-rule="evenodd" d="M20.9995 12V9.5C20.9995 8.80964 21.2436 8.22039 21.7317 7.73223C22.2199 7.24408 22.8092 7 23.4995 7C24.1899 7 24.7791 7.24408 25.2673 7.73223C25.7554 8.22039 25.9995 8.80964 25.9995 9.5V26.5C25.9995 27.1904 25.7554 27.7796 25.2673 28.2678C24.7791 28.7559 24.1899 29 23.4995 29C22.8092 29 22.2199 28.7559 21.7317 28.2678C21.2436 27.7796 20.9995 27.1904 20.9995 26.5V12Z" fill="white"/>
<path opacity="0.3" fill-rule="evenodd" clip-rule="evenodd" d="M11.9995 20V17.5C11.9995 16.8096 12.2436 16.2204 12.7317 15.7322C13.2199 15.2441 13.8092 15 14.4995 15C15.1899 15 15.7791 15.2441 16.2673 15.7322C16.7554 16.2204 16.9995 16.8096 16.9995 17.5V26.5C16.9995 27.1904 16.7554 27.7796 16.2673 28.2678C15.7791 28.7559 15.1899 29 14.4995 29C13.8092 29 13.2199 28.7559 12.7317 28.2678C12.2436 27.7796 11.9995 27.1904 11.9995 26.5V20Z" fill="white"/>
<path fill-rule="evenodd" clip-rule="evenodd" d="M8.52944 32.473H34.1174C34.7273 32.4725 35.291 32.7975 35.5961 33.3256C35.9012 33.8536 35.9012 34.5043 35.5962 35.0324C35.2911 35.5605 34.7274 35.8855 34.1175 35.885H6.82344C6.36994 35.885 5.9351 35.7045 5.61499 35.3832C5.29488 35.062 5.11585 34.6265 5.11744 34.173V6.87902C5.11777 5.93732 5.88139 5.1739 6.82331 5.17383C7.76523 5.17376 8.52897 5.93706 8.52944 6.87897L8.52944 32.473Z" fill="white"/>
<path opacity="0.3" fill-rule="evenodd" clip-rule="evenodd" d="M28.9995 24V21.5C28.9995 20.8096 29.2436 20.2204 29.7317 19.7322C30.2199 19.2441 30.8092 19 31.4995 19C32.1899 19 32.7791 19.2441 33.2673 19.7322C33.7554 20.2204 33.9995 20.8096 33.9995 21.5V26.5C33.9995 27.1904 33.7554 27.7796 33.2673 28.2678C32.7791 28.7559 32.1899 29 31.4995 29C30.8092 29 30.2199 28.7559 29.7317 28.2678C29.2436 27.7796 28.9995 27.1904 28.9995 26.5V24Z" fill="white"/>
</svg>
