<svg width="42" height="42" viewBox="0 0 42 42" fill="none" xmlns="http://www.w3.org/2000/svg">
<path opacity="0.3" fill-rule="evenodd" clip-rule="evenodd" d="M8.68394 26.3701L5.21094 37.6581L16.4989 34.1851L8.68394 26.3701Z" fill="white"/>
<path fill-rule="evenodd" clip-rule="evenodd" d="M22.5779 3.79297C32.1695 3.79297 39.9449 11.5684 39.9449 21.16C39.9449 30.7515 32.1695 38.527 22.5779 38.527C12.9864 38.527 5.21094 30.7515 5.21094 21.16C5.21094 11.5684 12.9864 3.79297 22.5779 3.79297H22.5779ZM12.4489 23.86C15.0709 27.793 18.4889 29.843 22.5779 29.843C26.6669 29.843 30.0839 27.793 32.7109 23.86C33.0675 23.3438 33.118 22.6754 32.8431 22.1115C32.5681 21.5476 32.0105 21.1758 31.3842 21.1388C30.7579 21.1018 30.1604 21.4054 29.8209 21.933C27.8119 24.947 25.4409 26.37 22.5829 26.37C19.7249 26.37 17.3539 24.947 15.3449 21.933C15.0055 21.4054 14.408 21.1018 13.7817 21.1388C13.1554 21.1758 12.5978 21.5476 12.3228 22.1115C12.0479 22.6754 12.0984 23.3438 12.4549 23.86L12.4489 23.86Z" fill="white"/>
</svg>
