<svg width="42" height="42" viewBox="0 0 42 42" fill="none" xmlns="http://www.w3.org/2000/svg">
<path opacity="0.3" fill-rule="evenodd" clip-rule="evenodd" d="M13.9891 5.2832V6.1572C13.9883 6.85321 14.2642 7.521 14.756 8.01353C15.2477 8.50606 15.9151 8.78294 16.6111 8.7832H25.3531C26.8018 8.7832 27.9761 7.60885 27.9761 6.1602L27.9761 5.2832H31.4761C33.4091 5.2832 34.9761 6.85021 34.9761 8.7832V36.7542C34.9761 38.6872 33.4091 40.2542 31.4761 40.2542H10.4951C8.56212 40.2542 6.99512 38.6872 6.99512 36.7542V8.7832C6.99512 6.85021 8.56212 5.2832 10.4951 5.2832H13.9891Z" fill="white"/>
<path fill-rule="evenodd" clip-rule="evenodd" d="M19.2373 3.53516C19.2373 2.56866 20.0208 1.78516 20.9873 1.78516C21.9538 1.78516 22.7373 2.56866 22.7373 3.53516L25.3603 3.53516C25.843 3.53516 26.2343 3.92646 26.2343 4.40916V6.15816C26.2343 6.64085 25.843 7.03216 25.3603 7.03216H16.6113C16.1286 7.03216 15.7373 6.64085 15.7373 6.15816L15.7373 4.41016C15.7371 3.92776 16.1283 3.53632 16.611 3.53616L19.2373 3.53516Z" fill="white"/>
<path opacity="0.3" fill-rule="evenodd" clip-rule="evenodd" d="M18.001 17.5C18.001 17.0858 18.1474 16.7322 18.4403 16.4393C18.7332 16.1464 19.0868 16 19.501 16H27.501C27.9152 16 28.2687 16.1464 28.5616 16.4393C28.8545 16.7322 29.001 17.0858 29.001 17.5C29.001 17.9142 28.8545 18.2678 28.5616 18.5607C28.2687 18.8536 27.9152 19 27.501 19H19.501C19.0868 19 18.7332 18.8536 18.4403 18.5607C18.1474 18.2678 18.001 17.9142 18.001 17.5Z" fill="white"/>
<path opacity="0.3" fill-rule="evenodd" clip-rule="evenodd" d="M13.001 17.5C13.001 17.0858 13.1474 16.7322 13.4403 16.4393C13.7332 16.1464 14.0868 16 14.501 16C14.9152 16 15.2687 16.1464 15.5616 16.4393C15.8545 16.7322 16.001 17.0858 16.001 17.5C16.001 17.9142 15.8545 18.2678 15.5616 18.5607C15.2687 18.8536 14.9152 19 14.501 19C14.0868 19 13.7332 18.8536 13.4403 18.5607C13.1474 18.2678 13.001 17.9142 13.001 17.5Z" fill="white"/>
<path opacity="0.3" fill-rule="evenodd" clip-rule="evenodd" d="M13.001 24.5C13.001 24.0858 13.1474 23.7322 13.4403 23.4393C13.7332 23.1464 14.0868 23 14.501 23C14.9152 23 15.2687 23.1464 15.5616 23.4393C15.8545 23.7322 16.001 24.0858 16.001 24.5C16.001 24.9142 15.8545 25.2678 15.5616 25.5607C15.2687 25.8536 14.9152 26 14.501 26C14.0868 26 13.7332 25.8536 13.4403 25.5607C13.1474 25.2678 13.001 24.9142 13.001 24.5Z" fill="white"/>
<path opacity="0.3" fill-rule="evenodd" clip-rule="evenodd" d="M18.001 24.5C18.001 24.0858 18.1474 23.7322 18.4403 23.4393C18.7332 23.1464 19.0868 23 19.501 23H27.501C27.9152 23 28.2687 23.1464 28.5616 23.4393C28.8545 23.7322 29.001 24.0858 29.001 24.5C29.001 24.9142 28.8545 25.2678 28.5616 25.5607C28.2687 25.8536 27.9152 26 27.501 26H19.501C19.0868 26 18.7332 25.8536 18.4403 25.5607C18.1474 25.2678 18.001 24.9142 18.001 24.5Z" fill="white"/>
<path opacity="0.3" fill-rule="evenodd" clip-rule="evenodd" d="M13.001 31.5V30.5C13.001 30.0858 13.1474 29.7322 13.4403 29.4393C13.7332 29.1464 14.0868 29 14.501 29C14.9152 29 15.2687 29.1464 15.5616 29.4393C15.8545 29.7322 16.001 30.0858 16.001 30.5V32.5C16.001 32.9142 15.8545 33.2678 15.5616 33.5607C15.2687 33.8536 14.9152 34 14.501 34C14.0868 34 13.7332 33.8536 13.4403 33.5607C13.1474 33.2678 13.001 32.9142 13.001 32.5V31.5Z" fill="white"/>
<path opacity="0.3" fill-rule="evenodd" clip-rule="evenodd" d="M18.001 31.5C18.001 30.8096 18.2451 30.2204 18.7332 29.7322C19.2214 29.2441 19.8106 29 20.501 29H26.501C27.1913 29 27.7806 29.2441 28.2687 29.7322C28.7569 30.2204 29.001 30.8096 29.001 31.5C29.001 32.1904 28.7569 32.7796 28.2687 33.2678C27.7806 33.7559 27.1913 34 26.501 34H20.501C19.8106 34 19.2214 33.7559 18.7332 33.2678C18.2451 32.7796 18.001 32.1904 18.001 31.5Z" fill="white"/>
</svg>
