<svg width="43" height="42" viewBox="0 0 43 42" fill="none" xmlns="http://www.w3.org/2000/svg">
<path opacity="0.3" fill-rule="evenodd" clip-rule="evenodd" d="M13.9901 5.2832V6.1572C13.9893 6.85321 14.2652 7.521 14.7569 8.01353C15.2487 8.50606 15.9161 8.78294 16.6121 8.7832H25.3541C26.8027 8.7832 27.9771 7.60885 27.9771 6.1602L27.9771 5.2832H31.4771C33.4101 5.2832 34.9771 6.85021 34.9771 8.7832V36.7542C34.9771 38.6872 33.4101 40.2542 31.4771 40.2542H10.4961C8.5631 40.2542 6.99609 38.6872 6.99609 36.7542V8.7832C6.99609 6.85021 8.5631 5.2832 10.4961 5.2832H13.9901Z" fill="#2DCA8C"/>
<path fill-rule="evenodd" clip-rule="evenodd" d="M19.2383 3.53516C19.2383 2.56866 20.0218 1.78516 20.9883 1.78516C21.9548 1.78516 22.7383 2.56866 22.7383 3.53516L25.3613 3.53516C25.844 3.53516 26.2353 3.92646 26.2353 4.40916V6.15816C26.2353 6.64085 25.844 7.03216 25.3613 7.03216H16.6123C16.1296 7.03216 15.7383 6.64085 15.7383 6.15816L15.7383 4.41016C15.7381 3.92776 16.1293 3.53632 16.612 3.53616L19.2383 3.53516Z" fill="#2DCA8C"/>
<path opacity="0.3" fill-rule="evenodd" clip-rule="evenodd" d="M18.002 17.5C18.002 17.0858 18.1484 16.7322 18.4413 16.4393C18.7342 16.1464 19.0877 16 19.502 16H27.502C27.9162 16 28.2697 16.1464 28.5626 16.4393C28.8555 16.7322 29.002 17.0858 29.002 17.5C29.002 17.9142 28.8555 18.2678 28.5626 18.5607C28.2697 18.8536 27.9162 19 27.502 19H19.502C19.0877 19 18.7342 18.8536 18.4413 18.5607C18.1484 18.2678 18.002 17.9142 18.002 17.5Z" fill="#2DCA8C"/>
<path opacity="0.3" fill-rule="evenodd" clip-rule="evenodd" d="M13.002 17.5C13.002 17.0858 13.1484 16.7322 13.4413 16.4393C13.7342 16.1464 14.0877 16 14.502 16C14.9162 16 15.2697 16.1464 15.5626 16.4393C15.8555 16.7322 16.002 17.0858 16.002 17.5C16.002 17.9142 15.8555 18.2678 15.5626 18.5607C15.2697 18.8536 14.9162 19 14.502 19C14.0877 19 13.7342 18.8536 13.4413 18.5607C13.1484 18.2678 13.002 17.9142 13.002 17.5Z" fill="#2DCA8C"/>
<path opacity="0.3" fill-rule="evenodd" clip-rule="evenodd" d="M13.002 24.5C13.002 24.0858 13.1484 23.7322 13.4413 23.4393C13.7342 23.1464 14.0877 23 14.502 23C14.9162 23 15.2697 23.1464 15.5626 23.4393C15.8555 23.7322 16.002 24.0858 16.002 24.5C16.002 24.9142 15.8555 25.2678 15.5626 25.5607C15.2697 25.8536 14.9162 26 14.502 26C14.0877 26 13.7342 25.8536 13.4413 25.5607C13.1484 25.2678 13.002 24.9142 13.002 24.5Z" fill="#2DCA8C"/>
<path opacity="0.3" fill-rule="evenodd" clip-rule="evenodd" d="M18.002 24.5C18.002 24.0858 18.1484 23.7322 18.4413 23.4393C18.7342 23.1464 19.0877 23 19.502 23H27.502C27.9162 23 28.2697 23.1464 28.5626 23.4393C28.8555 23.7322 29.002 24.0858 29.002 24.5C29.002 24.9142 28.8555 25.2678 28.5626 25.5607C28.2697 25.8536 27.9162 26 27.502 26H19.502C19.0877 26 18.7342 25.8536 18.4413 25.5607C18.1484 25.2678 18.002 24.9142 18.002 24.5Z" fill="#2DCA8C"/>
<path opacity="0.3" fill-rule="evenodd" clip-rule="evenodd" d="M13.002 31.5V30.5C13.002 30.0858 13.1484 29.7322 13.4413 29.4393C13.7342 29.1464 14.0877 29 14.502 29C14.9162 29 15.2697 29.1464 15.5626 29.4393C15.8555 29.7322 16.002 30.0858 16.002 30.5V32.5C16.002 32.9142 15.8555 33.2678 15.5626 33.5607C15.2697 33.8536 14.9162 34 14.502 34C14.0877 34 13.7342 33.8536 13.4413 33.5607C13.1484 33.2678 13.002 32.9142 13.002 32.5V31.5Z" fill="#2DCA8C"/>
<path opacity="0.3" fill-rule="evenodd" clip-rule="evenodd" d="M18.002 31.5C18.002 30.8096 18.246 30.2204 18.7342 29.7322C19.2223 29.2441 19.8116 29 20.502 29H26.502C27.1923 29 27.7816 29.2441 28.2697 29.7322C28.7579 30.2204 29.002 30.8096 29.002 31.5C29.002 32.1904 28.7579 32.7796 28.2697 33.2678C27.7816 33.7559 27.1923 34 26.502 34H20.502C19.8116 34 19.2223 33.7559 18.7342 33.2678C18.246 32.7796 18.002 32.1904 18.002 31.5Z" fill="#2DCA8C"/>
</svg>
