<svg width="45" height="46" viewBox="0 0 45 46" fill="none" xmlns="http://www.w3.org/2000/svg">
<path opacity="0.3" fill-rule="evenodd" clip-rule="evenodd" d="M10.5842 24.8218C6.42807 22.1397 4.5604 17.0225 6.01178 12.2938C7.46316 7.56509 11.8801 4.37678 16.8252 4.48818C21.7704 4.59958 26.0392 7.98354 27.2762 12.7728L31.7682 12.7728C35.5814 12.774 38.6719 15.8655 38.672 19.6787C38.672 23.4918 35.5816 26.5834 31.7685 26.5848H15.1932C13.4917 26.5873 11.8497 25.9592 10.5842 24.8218L10.5842 24.8218Z" fill="white"/>
<path fill-rule="evenodd" clip-rule="evenodd" d="M16.6329 36.6989H20.2329V40.3959C20.2329 40.6407 20.3304 40.8754 20.5037 41.0482C20.6771 41.221 20.9121 41.3177 21.1569 41.3169H23.0409C23.5496 41.3169 23.9619 40.9045 23.9619 40.3959V36.6959H27.5619C27.92 36.6947 28.245 36.4861 28.3951 36.161C28.5452 35.8359 28.4933 35.4532 28.2619 35.1799L22.8009 28.7269C22.6259 28.5205 22.369 28.4015 22.0984 28.4015C21.8278 28.4015 21.5709 28.5205 21.3959 28.7269L15.9299 35.1829C15.6986 35.4562 15.6466 35.8389 15.7968 36.164C15.9469 36.4891 16.2718 36.6977 16.6299 36.6989H16.6329Z" fill="white"/>
</svg>
