<svg width="45" height="46" viewBox="0 0 45 46" fill="none" xmlns="http://www.w3.org/2000/svg">
<path opacity="0.3" fill-rule="evenodd" clip-rule="evenodd" d="M10.5842 24.8218C6.42807 22.1397 4.5604 17.0225 6.01178 12.2938C7.46316 7.56509 11.8801 4.37678 16.8252 4.48818C21.7704 4.59958 26.0392 7.98354 27.2762 12.7728L31.7682 12.7728C35.5814 12.774 38.6719 15.8655 38.672 19.6787C38.672 23.4918 35.5816 26.5834 31.7685 26.5848H15.1932C13.4917 26.5873 11.8497 25.9592 10.5842 24.8218L10.5842 24.8218Z" fill="#FF715B"/>
<path fill-rule="evenodd" clip-rule="evenodd" d="M16.6329 36.6984H20.2329V40.3954C20.2329 40.6402 20.3304 40.8749 20.5037 41.0477C20.6771 41.2205 20.9121 41.3172 21.1569 41.3164H23.0409C23.5496 41.3164 23.9619 40.9041 23.9619 40.3954V36.6954H27.5619C27.92 36.6942 28.245 36.4856 28.3951 36.1605C28.5452 35.8354 28.4933 35.4527 28.2619 35.1794L22.8009 28.7264C22.6259 28.52 22.369 28.401 22.0984 28.401C21.8278 28.401 21.5709 28.52 21.3959 28.7264L15.9299 35.1824C15.6986 35.4557 15.6466 35.8384 15.7968 36.1635C15.9469 36.4886 16.2718 36.6972 16.6299 36.6984H16.6329Z" fill="#FF715B"/>
</svg>
