<svg width="43" height="43" viewBox="0 0 43 43" fill="none" xmlns="http://www.w3.org/2000/svg">
<path fill-rule="evenodd" clip-rule="evenodd" d="M14.9297 30.5599H8.88569C5.94169 30.5599 3.55469 27.2849 3.55469 24.3399C3.55469 21.3949 5.94169 18.1199 8.88569 18.1199H10.6627V14.5659H37.3197V20.7859C37.3197 26.0861 34.1801 30.882 29.3232 33.0019C24.4663 35.1218 18.8149 34.1628 14.9291 30.5594L14.9297 30.5599ZM12.2007 27.0059C11.3279 25.3551 10.814 23.5383 10.6927 21.6749L8.88569 21.6749C7.90469 21.6749 7.10869 23.3589 7.10869 24.3409C7.10869 25.3229 7.90869 27.0069 8.88569 27.0069L12.2007 27.0059Z" fill="white"/>
<path opacity="0.3" fill-rule="evenodd" clip-rule="evenodd" d="M11.001 39.5C11.001 39.0858 11.1474 38.7322 11.4403 38.4393C11.7332 38.1464 12.0868 38 12.501 38H35.501C35.9152 38 36.2687 38.1464 36.5616 38.4393C36.8545 38.7322 37.001 39.0858 37.001 39.5C37.001 39.9142 36.8545 40.2678 36.5616 40.5607C36.2687 40.8536 35.9152 41 35.501 41H12.501C12.0868 41 11.7332 40.8536 11.4403 40.5607C11.1474 40.2678 11.001 39.9142 11.001 39.5Z" fill="white"/>
<path opacity="0.3" fill-rule="evenodd" clip-rule="evenodd" d="M14.4238 0.349121L16.4808 2.39712C15.6826 3.19826 15.2715 4.30641 15.354 5.43428C15.4365 6.56215 16.0045 7.59868 16.9108 8.27512L17.7728 8.91912L16.0348 11.2491L15.1728 10.6051C13.5903 9.42561 12.5984 7.61673 12.4546 5.64828C12.3108 3.67982 13.0294 1.74603 14.4238 0.34912L14.4238 0.349121Z" fill="white"/>
<path opacity="0.3" fill-rule="evenodd" clip-rule="evenodd" d="M23.3085 2.12598L25.3655 4.17398C24.5674 4.97511 24.1562 6.08326 24.2387 7.21113C24.3212 8.33901 24.8893 9.37553 25.7955 10.052L26.6575 10.696L24.9195 13.026L24.0575 12.382C22.4751 11.2025 21.4831 9.39359 21.3394 7.42513C21.1956 5.45668 21.9142 3.52288 23.3085 2.12598L23.3085 2.12598Z" fill="white"/>
<path opacity="0.3" fill-rule="evenodd" clip-rule="evenodd" d="M32.1953 0.349121L34.2523 2.39712C33.4541 3.19826 33.0429 4.30641 33.1255 5.43428C33.208 6.56215 33.776 7.59868 34.6823 8.27512L35.5443 8.91912L33.8063 11.2491L32.9443 10.6051C31.3618 9.42561 30.3698 7.61673 30.2261 5.64828C30.0823 3.67982 30.8009 1.74603 32.1953 0.34912L32.1953 0.349121Z" fill="white"/>
</svg>
