<svg width="44" height="43" viewBox="0 0 44 43" fill="none" xmlns="http://www.w3.org/2000/svg">
<path fill-rule="evenodd" clip-rule="evenodd" d="M14.9316 30.5599H8.88764C5.94364 30.5599 3.55664 27.2849 3.55664 24.3399C3.55664 21.3949 5.94364 18.1199 8.88764 18.1199H10.6646V14.5659H37.3216V20.7859C37.3216 26.0861 34.1821 30.882 29.3251 33.0019C24.4682 35.1218 18.8168 34.1628 14.9311 30.5594L14.9316 30.5599ZM12.2026 27.0059C11.3299 25.3551 10.816 23.5383 10.6946 21.6749L8.88764 21.6749C7.90664 21.6749 7.11064 23.3589 7.11064 24.3409C7.11064 25.3229 7.91064 27.0069 8.88764 27.0069L12.2026 27.0059Z" fill="#FFBE3D"/>
<path opacity="0.3" fill-rule="evenodd" clip-rule="evenodd" d="M11.002 39.5C11.002 39.0858 11.1484 38.7322 11.4413 38.4393C11.7342 38.1464 12.0877 38 12.502 38H35.502C35.9162 38 36.2697 38.1464 36.5626 38.4393C36.8555 38.7322 37.002 39.0858 37.002 39.5C37.002 39.9142 36.8555 40.2678 36.5626 40.5607C36.2697 40.8536 35.9162 41 35.502 41H12.502C12.0877 41 11.7342 40.8536 11.4413 40.5607C11.1484 40.2678 11.002 39.9142 11.002 39.5Z" fill="#FFBE3D"/>
<path opacity="0.3" fill-rule="evenodd" clip-rule="evenodd" d="M14.4247 0.349121L16.4817 2.39712C15.6836 3.19826 15.2724 4.30641 15.3549 5.43428C15.4375 6.56215 16.0055 7.59868 16.9117 8.27512L17.7737 8.91912L16.0357 11.2491L15.1737 10.6051C13.5913 9.42561 12.5993 7.61673 12.4556 5.64828C12.3118 3.67982 13.0304 1.74603 14.4247 0.34912L14.4247 0.349121Z" fill="#FFBE3D"/>
<path opacity="0.3" fill-rule="evenodd" clip-rule="evenodd" d="M23.3095 2.12598L25.3665 4.17398C24.5683 4.97511 24.1572 6.08326 24.2397 7.21113C24.3222 8.33901 24.8902 9.37553 25.7965 10.052L26.6585 10.696L24.9205 13.026L24.0585 12.382C22.476 11.2025 21.4841 9.39359 21.3403 7.42513C21.1966 5.45668 21.9152 3.52288 23.3095 2.12598L23.3095 2.12598Z" fill="#FFBE3D"/>
<path opacity="0.3" fill-rule="evenodd" clip-rule="evenodd" d="M32.1962 0.349121L34.2532 2.39712C33.455 3.19826 33.0439 4.30641 33.1264 5.43428C33.2089 6.56215 33.777 7.59868 34.6832 8.27512L35.5452 8.91912L33.8072 11.2491L32.9452 10.6051C31.3627 9.42561 30.3708 7.61673 30.2271 5.64828C30.0833 3.67982 30.8019 1.74603 32.1962 0.34912L32.1962 0.349121Z" fill="#FFBE3D"/>
</svg>
