<svg width="45" height="45" viewBox="0 0 45 45" fill="none" xmlns="http://www.w3.org/2000/svg">
<path opacity="0.3" fill-rule="evenodd" clip-rule="evenodd" d="M4.80127 20.0288L8.77927 16.0508C9.30663 15.5234 10.0219 15.2271 10.7678 15.2271C11.5136 15.2271 12.2289 15.5234 12.7563 16.0508L16.7333 20.0288C17.2607 20.5561 17.557 21.2714 17.557 22.0173C17.557 22.7631 17.2607 23.4784 16.7333 24.0058L12.7563 27.9828C12.2289 28.5102 11.5136 28.8065 10.7678 28.8065C10.0219 28.8065 9.30663 28.5102 8.77927 27.9828L4.80127 24.0058C4.27385 23.4784 3.97754 22.7631 3.97754 22.0173C3.97754 21.2714 4.27385 20.5561 4.80127 20.0288H4.80127ZM27.3013 20.0288L31.2783 16.0508C31.8056 15.5234 32.5209 15.2271 33.2668 15.2271C34.0126 15.2271 34.7279 15.5234 35.2553 16.0508L39.2323 20.0288C39.7597 20.5561 40.056 21.2714 40.056 22.0173C40.056 22.7631 39.7597 23.4784 39.2323 24.0058L35.2563 27.9828C34.7289 28.5102 34.0136 28.8065 33.2678 28.8065C32.5219 28.8065 31.8066 28.5102 31.2793 27.9828L27.3013 24.0058C26.7738 23.4784 26.4775 22.7631 26.4775 22.0173C26.4775 21.2714 26.7738 20.5561 27.3013 20.0288H27.3013Z" fill="white"/>
<path fill-rule="evenodd" clip-rule="evenodd" d="M16.0513 31.2788L20.0293 27.3018C20.5566 26.7743 21.2719 26.478 22.0178 26.478C22.7636 26.478 23.4789 26.7743 24.0063 27.3018L27.9833 31.2788C28.5107 31.8061 28.807 32.5214 28.807 33.2673C28.807 34.0131 28.5107 34.7284 27.9833 35.2558L24.0063 39.2328C23.4789 39.7602 22.7636 40.0565 22.0178 40.0565C21.2719 40.0565 20.5566 39.7602 20.0293 39.2328L16.0513 35.2558C15.5238 34.7284 15.2275 34.0131 15.2275 33.2673C15.2275 32.5214 15.5238 31.8061 16.0513 31.2788ZM16.0513 8.77876L20.0293 4.80176C20.5566 4.27434 21.2719 3.97803 22.0178 3.97803C22.7636 3.97803 23.4789 4.27434 24.0063 4.80176L27.9833 8.77876C28.5107 9.30612 28.807 10.0214 28.807 10.7673C28.807 11.5131 28.5107 12.2284 27.9833 12.7558L24.0063 16.7338C23.4789 17.2612 22.7636 17.5575 22.0178 17.5575C21.2719 17.5575 20.5566 17.2612 20.0293 16.7338L16.0513 12.7558C15.5238 12.2284 15.2275 11.5131 15.2275 10.7673C15.2275 10.0214 15.5238 9.30612 16.0513 8.77876Z" fill="white"/>
</svg>
