<svg width="45" height="45" viewBox="0 0 45 45" fill="none" xmlns="http://www.w3.org/2000/svg">
<path opacity="0.3" fill-rule="evenodd" clip-rule="evenodd" d="M4.80127 20.0283L8.77927 16.0503C9.30663 15.5229 10.0219 15.2266 10.7678 15.2266C11.5136 15.2266 12.2289 15.5229 12.7563 16.0503L16.7333 20.0283C17.2607 20.5557 17.557 21.2709 17.557 22.0168C17.557 22.7626 17.2607 23.4779 16.7333 24.0053L12.7563 27.9823C12.2289 28.5097 11.5136 28.806 10.7678 28.806C10.0219 28.806 9.30663 28.5097 8.77927 27.9823L4.80127 24.0053C4.27385 23.4779 3.97754 22.7626 3.97754 22.0168C3.97754 21.2709 4.27385 20.5557 4.80127 20.0283H4.80127ZM27.3013 20.0283L31.2783 16.0503C31.8056 15.5229 32.5209 15.2266 33.2668 15.2266C34.0126 15.2266 34.7279 15.5229 35.2553 16.0503L39.2323 20.0283C39.7597 20.5557 40.056 21.2709 40.056 22.0168C40.056 22.7626 39.7597 23.4779 39.2323 24.0053L35.2563 27.9823C34.7289 28.5097 34.0136 28.806 33.2678 28.806C32.5219 28.806 31.8066 28.5097 31.2793 27.9823L27.3013 24.0053C26.7738 23.4779 26.4775 22.7626 26.4775 22.0168C26.4775 21.2709 26.7738 20.5557 27.3013 20.0283H27.3013Z" fill="#2DCA8C"/>
<path fill-rule="evenodd" clip-rule="evenodd" d="M16.0513 31.2792L20.0293 27.3022C20.5566 26.7748 21.2719 26.4785 22.0178 26.4785C22.7636 26.4785 23.4789 26.7748 24.0063 27.3022L27.9833 31.2792C28.5107 31.8066 28.807 32.5219 28.807 33.2677C28.807 34.0136 28.5107 34.7289 27.9833 35.2562L24.0063 39.2332C23.4789 39.7607 22.7636 40.057 22.0178 40.057C21.2719 40.057 20.5566 39.7607 20.0293 39.2332L16.0513 35.2562C15.5238 34.7289 15.2275 34.0136 15.2275 33.2677C15.2275 32.5219 15.5238 31.8066 16.0513 31.2792ZM16.0513 8.77925L20.0293 4.80225C20.5566 4.27482 21.2719 3.97852 22.0178 3.97852C22.7636 3.97852 23.4789 4.27482 24.0063 4.80225L27.9833 8.77925C28.5107 9.30661 28.807 10.0219 28.807 10.7677C28.807 11.5136 28.5107 12.2289 27.9833 12.7562L24.0063 16.7342C23.4789 17.2617 22.7636 17.558 22.0178 17.558C21.2719 17.558 20.5566 17.2617 20.0293 16.7342L16.0513 12.7562C15.5238 12.2289 15.2275 11.5136 15.2275 10.7677C15.2275 10.0219 15.5238 9.30661 16.0513 8.77925Z" fill="#2DCA8C"/>
</svg>
