<svg width="42" height="42" viewBox="0 0 42 42" fill="none" xmlns="http://www.w3.org/2000/svg">
<path opacity="0.3" fill-rule="evenodd" clip-rule="evenodd" d="M2.99951 12V10C2.99951 9.44772 3.19477 8.97631 3.5853 8.58579C3.97582 8.19526 4.44723 8 4.99951 8H36.9995C37.5518 8 38.0232 8.19526 38.4137 8.58579C38.8042 8.97631 38.9995 9.44772 38.9995 10V31C38.9995 31.5523 38.8042 32.0237 38.4137 32.4142C38.0232 32.8047 37.5518 33 36.9995 33H4.99951C4.44723 33 3.97582 32.8047 3.5853 32.4142C3.19477 32.0237 2.99951 31.5523 2.99951 31V12Z" fill="#377DFF"/>
<rect x="2.99951" y="13" width="36" height="7" fill="#377DFF"/>
<path opacity="0.3" fill-rule="evenodd" clip-rule="evenodd" d="M28.9995 26.5V26C28.9995 25.7239 29.0971 25.4882 29.2924 25.2929C29.4877 25.0976 29.7234 25 29.9995 25H34.9995C35.2757 25 35.5114 25.0976 35.7066 25.2929C35.9019 25.4882 35.9995 25.7239 35.9995 26V27C35.9995 27.2761 35.9019 27.5118 35.7066 27.7071C35.5114 27.9024 35.2757 28 34.9995 28H29.9995C29.7234 28 29.4877 27.9024 29.2924 27.7071C29.0971 27.5118 28.9995 27.2761 28.9995 27V26.5Z" fill="#377DFF"/>
</svg>
