<svg width="42" height="42" viewBox="0 0 42 42" fill="none" xmlns="http://www.w3.org/2000/svg">
<path fill-rule="evenodd" clip-rule="evenodd" d="M0.314453 33.2869L12.3735 8.26294L24.4345 33.2869H21.0165L17.9495 26.8049H6.79645L3.73445 33.2869H0.314453ZM12.3735 15.0229L8.19145 23.8769H16.5555L12.3735 15.0229Z" fill="white"/>
<path opacity="0.3" fill-rule="evenodd" clip-rule="evenodd" d="M37.1872 33.287V31.542C35.6569 32.8833 33.6806 33.6041 31.6462 33.563C29.2596 33.6004 26.9612 32.6616 25.2833 30.9639C23.6055 29.2662 22.6937 26.957 22.7592 24.571C22.6945 22.1857 23.6066 19.8774 25.2841 18.1804C26.9616 16.4834 29.2593 15.5449 31.6452 15.582C33.6796 15.5409 35.6559 16.2617 37.1862 17.603V15.861H40.1862V33.287H37.1872ZM31.7152 30.742C33.9073 30.8225 35.9822 29.752 37.1872 27.919V21.228C35.9822 19.395 33.9073 18.3245 31.7152 18.405C30.1085 18.4093 28.5736 19.0711 27.4675 20.2365C26.3614 21.4019 25.7806 22.9693 25.8602 24.574C25.7809 26.1785 26.3618 27.7456 27.4679 28.9108C28.5739 30.076 30.1086 30.7377 31.7151 30.742H31.7152Z" fill="white"/>
</svg>
