<svg width="42" height="42" viewBox="0 0 42 42" fill="none" xmlns="http://www.w3.org/2000/svg">
<path fill-rule="evenodd" clip-rule="evenodd" d="M0.3125 33.2867L12.3715 8.2627L24.4325 33.2867H21.0145L17.9475 26.8047H6.7945L3.7325 33.2867H0.3125ZM12.3715 15.0227L8.1895 23.8767H16.5535L12.3715 15.0227Z" fill="#2DCA8C"/>
<path opacity="0.3" fill-rule="evenodd" clip-rule="evenodd" d="M37.1852 33.2867V31.5417C35.655 32.883 33.6786 33.6039 31.6442 33.5627C29.2576 33.6002 26.9592 32.6613 25.2814 30.9637C23.6035 29.266 22.6917 26.9567 22.7572 24.5707C22.6926 22.1854 23.6046 19.8771 25.2821 18.1801C26.9597 16.4832 29.2573 15.5446 31.6432 15.5817C33.6777 15.5406 35.654 16.2615 37.1842 17.6027V15.8607H40.1842V33.2867H37.1852ZM31.7132 30.7417C33.9053 30.8222 35.9803 29.7518 37.1852 27.9187V21.2277C35.9803 19.3947 33.9053 18.3243 31.7132 18.4047C30.1065 18.4091 28.5716 19.0709 27.4655 20.2363C26.3595 21.4017 25.7787 22.969 25.8582 24.5737C25.7789 26.1783 26.3599 27.7454 27.4659 28.9106C28.5719 30.0757 30.1067 30.7374 31.7132 30.7417H31.7132Z" fill="#2DCA8C"/>
</svg>
