<svg width="44" height="43" viewBox="0 0 44 43" fill="none" xmlns="http://www.w3.org/2000/svg">
<path opacity="0.3" fill-rule="evenodd" clip-rule="evenodd" d="M23.0283 15.1091L19.6543 13.9841C21.0143 9.90412 23.1953 7.36012 26.2453 6.59712C27.8333 6.19912 30.2333 3.64512 30.2333 2.09912H33.7903C33.7903 5.29912 30.2633 9.26012 27.1083 10.0481C25.4153 10.4711 24.0403 12.0761 23.0283 15.1091Z" fill="#FF715B"/>
<path fill-rule="evenodd" clip-rule="evenodd" d="M13.9043 12.7682H28.8143C31.2577 12.2832 33.7115 13.5533 34.7263 15.8282L40.8143 29.4742C41.7329 31.5327 41.2586 33.9464 39.6293 35.5042L38.8393 36.2602C38.8033 36.2949 38.7663 36.3282 38.7283 36.3602C36.7959 38.0917 33.8259 37.9297 32.0933 35.9982L27.2083 30.5512H15.7653L10.8813 35.9992C9.14875 37.9307 6.17878 38.0927 4.24634 36.3612C4.20901 36.3279 4.17201 36.2946 4.13534 36.2612L3.30434 35.4672C1.69512 33.9284 1.21076 31.5521 2.08934 29.5062L7.93534 15.8912C8.93336 13.5671 11.426 12.263 13.9043 12.7682V12.7682ZM14.2263 25.2212C16.1908 25.2212 17.7833 23.6287 17.7833 21.6642C17.7833 19.6998 16.1908 18.1072 14.2263 18.1072C12.2619 18.1072 10.6693 19.6998 10.6693 21.6642C10.6693 23.6287 12.2619 25.2212 14.2263 25.2212H14.2263ZM30.2263 21.6642C31.2083 21.6642 32.0043 20.8682 32.0043 19.8862C32.0043 18.9043 31.2083 18.1082 30.2263 18.1082C29.2444 18.1082 28.4483 18.9043 28.4483 19.8862C28.4494 20.3581 28.638 20.8103 28.9726 21.143C29.3072 21.4757 29.7604 21.6618 30.2323 21.6602L30.2263 21.6642ZM26.6763 25.2212C27.6583 25.2212 28.4543 24.4252 28.4543 23.4432C28.4543 22.4613 27.6583 21.6652 26.6763 21.6652C25.6944 21.6652 24.8983 22.4613 24.8983 23.4432C24.8983 24.4252 25.6944 25.2212 26.6763 25.2212Z" fill="#FF715B"/>
</svg>
