<svg width="43" height="43" viewBox="0 0 43 43" fill="none" xmlns="http://www.w3.org/2000/svg">
<path opacity="0.3" fill-rule="evenodd" clip-rule="evenodd" d="M23.0273 15.1091L19.6533 13.9841C21.0133 9.90412 23.1943 7.36012 26.2443 6.59712C27.8323 6.19912 30.2323 3.64512 30.2323 2.09912H33.7893C33.7893 5.29912 30.2623 9.26012 27.1073 10.0481C25.4143 10.4711 24.0393 12.0761 23.0273 15.1091Z" fill="white"/>
<path fill-rule="evenodd" clip-rule="evenodd" d="M13.9034 12.7682H28.8134C31.2567 12.2832 33.7105 13.5533 34.7254 15.8282L40.8134 29.4742C41.7319 31.5327 41.2576 33.9464 39.6284 35.5042L38.8384 36.2602C38.8024 36.2949 38.7654 36.3282 38.7274 36.3602C36.7949 38.0917 33.825 37.9297 32.0924 35.9982L27.2074 30.5512H15.7644L10.8804 35.9992C9.14777 37.9307 6.1778 38.0927 4.24536 36.3612C4.20803 36.3279 4.17103 36.2946 4.13436 36.2612L3.30336 35.4672C1.69415 33.9284 1.20979 31.5521 2.08836 29.5062L7.93436 15.8912C8.93238 13.5671 11.425 12.263 13.9034 12.7682V12.7682ZM14.2254 25.2212C16.1898 25.2212 17.7824 23.6287 17.7824 21.6642C17.7824 19.6998 16.1898 18.1072 14.2254 18.1072C12.2609 18.1072 10.6684 19.6998 10.6684 21.6642C10.6684 23.6287 12.2609 25.2212 14.2254 25.2212H14.2254ZM30.2254 21.6642C31.2073 21.6642 32.0034 20.8682 32.0034 19.8862C32.0034 18.9043 31.2073 18.1082 30.2254 18.1082C29.2434 18.1082 28.4474 18.9043 28.4474 19.8862C28.4484 20.3581 28.637 20.8103 28.9717 21.143C29.3063 21.4757 29.7594 21.6618 30.2313 21.6602L30.2254 21.6642ZM26.6754 25.2212C27.6573 25.2212 28.4534 24.4252 28.4534 23.4432C28.4534 22.4613 27.6573 21.6652 26.6754 21.6652C25.6934 21.6652 24.8974 22.4613 24.8974 23.4432C24.8974 24.4252 25.6934 25.2212 26.6754 25.2212Z" fill="white"/>
</svg>
