<svg width="40" height="40" viewBox="0 0 40 40" fill="none" xmlns="http://www.w3.org/2000/svg">
<path opacity="0.3" fill-rule="evenodd" clip-rule="evenodd" d="M11.666 18.3328H25C26.8408 18.3328 28.333 16.8406 28.333 14.9998V13.3328H31.666V14.9998C31.666 18.6819 28.6811 21.6668 24.999 21.6668H11.666V24.9998C11.6439 25.9043 10.9043 26.626 9.99952 26.626C9.09477 26.626 8.35518 25.9043 8.33302 24.9998V14.9998C8.3182 14.3947 8.63255 13.8291 9.15426 13.5222C9.67598 13.2153 10.3231 13.2153 10.8448 13.5222C11.3665 13.8291 11.6808 14.3947 11.666 14.9998V18.3328Z" fill="white"/>
<path fill-rule="evenodd" clip-rule="evenodd" d="M10 35C11.8408 35 13.333 33.5078 13.333 31.667C13.333 29.8263 11.8408 28.334 10 28.334C8.15924 28.334 6.66701 29.8263 6.66701 31.667C6.66701 33.5078 8.15924 35 10 35H10ZM10 38.333C6.31792 38.333 3.33301 35.3481 3.33301 31.666C3.33301 27.9839 6.31793 24.999 10 24.999C13.6821 24.999 16.667 27.9839 16.667 31.666C16.667 35.3481 13.6821 38.333 10 38.333H10Z" fill="white"/>
<path fill-rule="evenodd" clip-rule="evenodd" d="M30 11.667C31.8408 11.667 33.333 10.1748 33.333 8.33401C33.333 6.49325 31.8408 5.00101 30 5.00101C28.1592 5.00102 26.667 6.49325 26.667 8.33402C26.667 10.1748 28.1592 11.667 30 11.667ZM30 15C26.3179 15 23.333 12.0151 23.333 8.33301C23.333 4.65093 26.3179 1.66602 30 1.66602C33.6821 1.66602 36.667 4.65093 36.667 8.33302C36.667 12.0151 33.6821 15 30 15H30Z" fill="white"/>
<path fill-rule="evenodd" clip-rule="evenodd" d="M10 11.667C11.8406 11.6665 13.3324 10.174 13.332 8.33335C13.3316 6.49271 11.8393 5.00083 9.99868 5.00102C8.15804 5.0012 6.66601 6.49338 6.66601 8.33401C6.66601 9.21816 7.0173 10.0661 7.64258 10.6912C8.26785 11.3162 9.11587 11.6673 10 11.667H10ZM10 15C6.31792 15 3.33301 12.0151 3.33301 8.33301C3.33301 4.65093 6.31793 1.66602 10 1.66602C13.6821 1.66602 16.667 4.65093 16.667 8.33302C16.667 12.0151 13.6821 15 10 15H10Z" fill="white"/>
</svg>
