<svg width="42" height="42" viewBox="0 0 42 42" fill="none" xmlns="http://www.w3.org/2000/svg">
<path fill-rule="evenodd" clip-rule="evenodd" d="M28.7699 30.6219L19.1299 20.9799V7.21891C19.1302 6.25868 19.9087 5.48047 20.8689 5.48047C21.8291 5.48047 22.6076 6.25868 22.6079 7.21887L22.6079 19.5419L31.2299 28.1629L35.0369 24.3559C35.2858 24.108 35.6594 24.034 35.984 24.1686C36.3085 24.3031 36.5203 24.6196 36.5209 24.9709V34.1709C36.5209 34.6514 36.1314 35.0409 35.6509 35.0409L26.4509 35.0409C26.0998 35.0416 25.7827 34.8311 25.6469 34.5073C25.5111 34.1835 25.5833 33.8099 25.8299 33.5599L28.7699 30.6219Z" fill="#FF715B"/>
<path opacity="0.3" fill-rule="evenodd" clip-rule="evenodd" d="M12.5996 30.0783L16.0806 33.5593C16.3285 33.8082 16.4024 34.1818 16.2679 34.5064C16.1334 34.8309 15.8169 35.0427 15.4656 35.0433L6.13855 35.0433C5.65807 35.0433 5.26855 34.6538 5.26855 34.1733V24.8463C5.26911 24.4949 5.48092 24.1784 5.80549 24.0439C6.13005 23.9094 6.50366 23.9833 6.75256 24.2313L10.1316 27.6113L15.3986 23.1553L17.6456 25.8103L12.5996 30.0783Z" fill="#FF715B"/>
</svg>
