<svg width="42" height="42" viewBox="0 0 42 42" fill="none" xmlns="http://www.w3.org/2000/svg">
<path fill-rule="evenodd" clip-rule="evenodd" d="M28.7699 30.6214L19.1299 20.9794V7.21842C19.1302 6.25819 19.9087 5.47998 20.8689 5.47998C21.8291 5.47998 22.6076 6.25819 22.6079 7.21838L22.6079 19.5414L31.2299 28.1624L35.0369 24.3554C35.2858 24.1075 35.6594 24.0336 35.984 24.1681C36.3085 24.3026 36.5203 24.6191 36.5209 24.9704V34.1704C36.5209 34.6509 36.1314 35.0404 35.6509 35.0404L26.4509 35.0404C26.0998 35.0411 25.7827 34.8306 25.6469 34.5068C25.5111 34.183 25.5833 33.8094 25.8299 33.5594L28.7699 30.6214Z" fill="white"/>
<path opacity="0.3" fill-rule="evenodd" clip-rule="evenodd" d="M12.6 30.0783L16.081 33.5593C16.329 33.8082 16.4029 34.1818 16.2684 34.5064C16.1339 34.8309 15.8174 35.0427 15.466 35.0433L6.13904 35.0433C5.65856 35.0433 5.26904 34.6538 5.26904 34.1733V24.8463C5.2696 24.4949 5.48141 24.1784 5.80598 24.0439C6.13054 23.9094 6.50415 23.9833 6.75305 24.2313L10.132 27.6113L15.399 23.1553L17.646 25.8103L12.6 30.0783Z" fill="white"/>
</svg>
