<svg width="41" height="41" viewBox="0 0 41 41" fill="none" xmlns="http://www.w3.org/2000/svg">
<path opacity="0.3" d="M30.7503 23.9167C27.9199 23.9167 25.6253 21.6221 25.6253 18.7917C25.6253 15.9612 27.9199 13.6667 30.7503 13.6667C33.5808 13.6667 35.8753 15.9612 35.8753 18.7917C35.8753 21.6221 33.5808 23.9167 30.7503 23.9167ZM15.3753 18.7917C11.6014 18.7917 8.54199 15.7323 8.54199 11.9583C8.54199 8.18439 11.6014 5.125 15.3753 5.125C19.1493 5.125 22.2087 8.18439 22.2087 11.9583C22.2087 15.7323 19.1493 18.7917 15.3753 18.7917Z" fill="#377DFF"/>
<path d="M30.0687 25.6257C35.8882 25.6893 40.6398 28.6316 40.9974 34.8497C41.0118 35.1001 40.9974 35.8747 40.0706 35.8747H33.4833C33.4833 32.0293 32.2128 28.4807 30.0687 25.6257ZM0.00111329 34.5066C0.663275 26.3533 7.28077 22.208 15.3465 22.208C23.5258 22.208 30.2458 26.1255 30.7464 34.508C30.7664 34.8419 30.7464 35.8747 29.4631 35.8747C23.1328 35.8747 13.726 35.8747 1.24282 35.8747C0.814383 35.8747 -0.0349555 34.9508 0.00111329 34.5066Z" fill="#377DFF"/>
</svg>
