<svg width="41" height="41" viewBox="0 0 41 41" fill="none" xmlns="http://www.w3.org/2000/svg">
<path opacity="0.3" d="M30.7498 23.9167C27.9194 23.9167 25.6248 21.6221 25.6248 18.7917C25.6248 15.9612 27.9194 13.6667 30.7498 13.6667C33.5803 13.6667 35.8748 15.9612 35.8748 18.7917C35.8748 21.6221 33.5803 23.9167 30.7498 23.9167ZM15.3748 18.7917C11.6009 18.7917 8.5415 15.7323 8.5415 11.9583C8.5415 8.18439 11.6009 5.125 15.3748 5.125C19.1488 5.125 22.2082 8.18439 22.2082 11.9583C22.2082 15.7323 19.1488 18.7917 15.3748 18.7917Z" fill="white"/>
<path d="M30.0687 25.626C35.8882 25.6896 40.6398 28.6318 40.9974 34.8499C41.0118 35.1004 40.9974 35.8749 40.0706 35.8749H33.4833C33.4833 32.0296 32.2128 28.481 30.0687 25.626ZM0.00111329 34.5069C0.663275 26.3535 7.28077 22.2083 15.3465 22.2083C23.5258 22.2083 30.2458 26.1258 30.7464 34.5082C30.7664 34.8422 30.7464 35.8749 29.4631 35.8749C23.1328 35.8749 13.726 35.8749 1.24282 35.8749C0.814383 35.8749 -0.0349555 34.951 0.00111329 34.5069Z" fill="white"/>
</svg>
