<svg width="42" height="42" viewBox="0 0 42 42" fill="none" xmlns="http://www.w3.org/2000/svg">
<path opacity="0.3" fill-rule="evenodd" clip-rule="evenodd" d="M13.74 5.08301C13.1701 5.08195 12.6232 5.30758 12.2199 5.71014C11.8166 6.11271 11.59 6.65916 11.59 7.22901V35.561C11.59 36.132 11.8167 36.6786 12.2203 37.0812C12.6238 37.4838 13.1709 37.7093 13.741 37.708L27.473 37.708C28.6582 37.708 29.619 36.7472 29.619 35.562V7.22901C29.619 6.04381 28.6582 5.08301 27.473 5.08301H13.74Z" fill="white"/>
<path fill-rule="evenodd" clip-rule="evenodd" d="M13.737 5.08308C12.5518 5.08308 11.591 6.04388 11.591 7.22908V35.5611C11.591 36.7463 12.5518 37.7071 13.737 37.7071H27.474C28.6592 37.7071 29.62 36.7463 29.62 35.5611V7.22908C29.62 6.04388 28.6592 5.08308 27.474 5.08308L13.737 5.08308ZM13.737 2.50708H27.474C30.0819 2.50708 32.196 4.62119 32.196 7.22908V35.5611C32.196 38.169 30.0819 40.2831 27.474 40.2831H13.737C11.1291 40.2831 9.01502 38.169 9.01501 35.5611V7.22908C9.01502 4.62119 11.1291 2.50708 13.737 2.50708ZM16.313 3.79508H24.898C25.3724 3.79508 25.757 4.17967 25.757 4.65408V6.37008C25.757 6.84449 25.3724 7.22908 24.898 7.22908H16.313C15.8386 7.22908 15.454 6.84449 15.454 6.37008L15.454 4.65308C15.4545 4.17912 15.8389 3.79511 16.313 3.79508L16.313 3.79508Z" fill="white"/>
</svg>
