<svg width="42" height="42" viewBox="0 0 42 42" fill="none" xmlns="http://www.w3.org/2000/svg">
<path opacity="0.3" fill-rule="evenodd" clip-rule="evenodd" d="M13.7401 5.08301C13.1702 5.08195 12.6234 5.30758 12.2201 5.71014C11.8167 6.11271 11.5901 6.65916 11.5901 7.22901V35.561C11.5901 36.132 11.8169 36.6786 12.2204 37.0812C12.6239 37.4838 13.1711 37.7093 13.7411 37.708L27.4731 37.708C28.6583 37.708 29.6191 36.7472 29.6191 35.562V7.22901C29.6191 6.04381 28.6583 5.08301 27.4731 5.08301H13.7401Z" fill="#FF715B"/>
<path fill-rule="evenodd" clip-rule="evenodd" d="M13.7369 5.08284C12.5517 5.08284 11.5909 6.04363 11.5909 7.22884V35.5608C11.5909 36.746 12.5517 37.7068 13.7369 37.7068H27.4739C28.6591 37.7068 29.6199 36.746 29.6199 35.5608V7.22884C29.6199 6.04363 28.6591 5.08284 27.4739 5.08284L13.7369 5.08284ZM13.7369 2.50684H27.4739C30.0818 2.50684 32.1959 4.62095 32.1959 7.22884V35.5608C32.1959 38.1687 30.0818 40.2828 27.4739 40.2828H13.7369C11.129 40.2828 9.01489 38.1687 9.01489 35.5608V7.22884C9.01489 4.62095 11.129 2.50684 13.7369 2.50684ZM16.3129 3.79484H24.8979C25.3723 3.79484 25.7569 4.17942 25.7569 4.65384V6.36984C25.7569 6.84425 25.3723 7.22884 24.8979 7.22884H16.3129C15.8385 7.22884 15.4539 6.84425 15.4539 6.36984L15.4539 4.65284C15.4544 4.17888 15.8388 3.79487 16.3128 3.79484L16.3129 3.79484Z" fill="#FF715B"/>
</svg>
