<svg width="44" height="44" viewBox="0 0 44 44" fill="none" xmlns="http://www.w3.org/2000/svg">
<path fill-rule="evenodd" clip-rule="evenodd" d="M10.028 7.54004H17.32C18.8305 7.54004 20.055 8.76454 20.055 10.275V12.098C20.0544 13.6095 18.8295 14.8336 17.319 14.833L10.028 14.833C8.51747 14.833 7.29297 13.6085 7.29297 12.098V10.275C7.29297 8.76454 8.51747 7.54004 10.028 7.54004ZM26.435 29.416H33.727C35.2375 29.416 36.462 30.6405 36.462 32.151V33.974C36.462 35.4845 35.2375 36.709 33.727 36.709H26.435C24.9245 36.709 23.7 35.4845 23.7 33.974V32.151C23.7 30.6405 24.9245 29.416 26.435 29.416H26.435Z" fill="#377DFF"/>
<path opacity="0.3" fill-rule="evenodd" clip-rule="evenodd" d="M10.028 18.478H17.32C18.8305 18.478 20.055 19.7025 20.055 21.213V33.974C20.055 35.4845 18.8305 36.709 17.32 36.709H10.028C8.51747 36.709 7.29297 35.4845 7.29297 33.974V21.213C7.29297 19.7025 8.51747 18.478 10.028 18.478L10.028 18.478ZM26.435 7.54004H33.727C35.2375 7.54004 36.462 8.76454 36.462 10.275V23.04C36.462 24.5505 35.2375 25.775 33.727 25.775H26.435C24.9245 25.775 23.7 24.5505 23.7 23.04V10.275C23.7 8.76454 24.9245 7.54004 26.435 7.54004H26.435Z" fill="#377DFF"/>
</svg>
