<svg width="43" height="43" viewBox="0 0 43 43" fill="none" xmlns="http://www.w3.org/2000/svg">
<path fill-rule="evenodd" clip-rule="evenodd" d="M8.97081 10.7061H34.0878C36.0694 10.7061 37.6758 12.3125 37.6758 14.2941V30.4411C37.6751 32.4239 36.0682 34.0297 34.0866 34.0291L8.97081 34.0291C6.98922 34.0291 5.38281 32.4227 5.38281 30.4411L5.38281 14.2941C5.38281 12.3125 6.98921 10.7061 8.97081 10.7061ZM32.5528 14.0061L21.5298 19.9421L10.5058 14.0061C9.85314 13.6678 9.04978 13.9157 8.70128 14.563C8.35279 15.2103 8.58809 16.0174 9.22981 16.3761L20.8918 22.6551C21.2901 22.8695 21.7695 22.8695 22.1678 22.6551L33.8288 16.3761C34.2602 16.1525 34.5376 15.7137 34.5546 15.2281C34.5716 14.7424 34.3255 14.2854 33.9108 14.0322C33.496 13.779 32.977 13.769 32.5528 14.0061Z" fill="#377DFF"/>
</svg>
