<svg width="44" height="43" viewBox="0 0 44 43" fill="none" xmlns="http://www.w3.org/2000/svg">
<path fill-rule="evenodd" clip-rule="evenodd" d="M8.97277 10.7061H34.0898C36.0714 10.7061 37.6778 12.3125 37.6778 14.2941V30.4411C37.6771 32.4239 36.0701 34.0297 34.0885 34.0291L8.97277 34.0291C6.99117 34.0291 5.38477 32.4227 5.38477 30.4411L5.38477 14.2941C5.38477 12.3125 6.99117 10.7061 8.97277 10.7061ZM32.5548 14.0061L21.5318 19.9421L10.5078 14.0061C9.85509 13.6678 9.05173 13.9157 8.70323 14.563C8.35474 15.2103 8.59004 16.0174 9.23177 16.3761L20.8938 22.6551C21.2921 22.8695 21.7715 22.8695 22.1698 22.6551L33.8308 16.3761C34.2622 16.1525 34.5396 15.7137 34.5566 15.2281C34.5736 14.7424 34.3275 14.2854 33.9127 14.0322C33.498 13.779 32.9789 13.769 32.5548 14.0061Z" fill="white"/>
</svg>
