<svg width="44" height="44" viewBox="0 0 44 44" fill="none" xmlns="http://www.w3.org/2000/svg">
<path fill-rule="evenodd" clip-rule="evenodd" d="M23.805 32.9991C23.5366 29.0403 21.573 25.3899 18.4178 22.9841C15.2625 20.5782 11.2226 19.651 7.33398 20.4401L7.33399 12.8311C7.33399 10.8058 8.97576 9.16406 11.001 9.16406H36.669C38.6934 9.16517 40.334 10.8066 40.334 12.8311V29.3311C40.334 31.3563 38.6922 32.9981 36.667 32.9981L23.805 32.9991ZM35.105 12.5371L23.834 18.6031L12.57 12.5371C12.1356 12.2817 11.5963 12.2845 11.1645 12.5442C10.7327 12.804 10.4776 13.2791 10.4996 13.7825C10.5216 14.2859 10.8172 14.737 11.27 14.9581L23.187 21.3751C23.593 21.5927 24.081 21.5927 24.487 21.3751L36.404 14.9581C36.8568 14.737 37.1524 14.2859 37.1744 13.7825C37.1964 13.2791 36.9413 12.804 36.5095 12.5442C36.0777 12.2845 35.5384 12.2817 35.104 12.5371L35.105 12.5371Z" fill="white"/>
<path opacity="0.3" fill-rule="evenodd" clip-rule="evenodd" d="M14.667 31.165C15.6793 31.165 16.5 31.9856 16.5 32.998V38.498C16.5005 38.9845 16.3076 39.4512 15.9638 39.7954C15.62 40.1396 15.1535 40.333 14.667 40.333H5.49999C5.01368 40.333 4.5473 40.1397 4.20351 39.7957C3.85973 39.4518 3.66673 38.9853 3.66699 38.499V32.999C3.66675 32.5125 3.85978 32.0461 4.20359 31.7021C4.54739 31.3582 5.01378 31.1649 5.5001 31.165L5.49999 30.248C5.537 27.743 7.57823 25.7317 10.0835 25.7317C12.5888 25.7317 14.63 27.743 14.667 30.248V31.165ZM10.084 27.498C8.56521 27.498 7.33399 28.7292 7.33399 30.248V31.165H12.834V30.248C12.834 28.7292 11.6028 27.498 10.084 27.498Z" fill="white"/>
</svg>
