<svg width="32" height="32" viewBox="0 0 32 32" fill="none" xmlns="http://www.w3.org/2000/svg">
<path fill-rule="evenodd" clip-rule="evenodd" d="M15.2911 27.9209C8.39112 27.9209 4.14111 23.0649 4.14111 16.8979C4.11166 13.6269 5.41128 10.4841 7.7423 8.18931C10.0733 5.89449 13.2361 4.64422 16.5061 4.72486C22.8001 4.72486 27.4971 8.59086 27.4971 14.6939C27.4971 20.2529 24.5581 22.4579 21.6181 22.4579C20.3569 22.5239 19.1593 21.8996 18.4911 20.8279C17.4226 21.8222 16.0207 22.3808 14.5611 22.3939C11.0461 22.3939 9.26112 19.9019 9.26112 16.8939C9.20131 15.0314 9.91027 13.2263 11.2216 11.9023C12.5329 10.5783 14.3311 9.85198 16.1941 9.89386C17.221 9.86167 18.2306 10.1646 19.0701 10.7569L19.1981 10.2139H22.2331L20.7331 17.2429C20.4451 18.6489 20.7651 19.7669 22.1391 19.7669C23.8321 19.7669 24.8231 18.3609 24.8231 14.6229C24.8231 9.63886 20.8931 7.30586 16.4841 7.30586C13.9207 7.21405 11.4354 8.19658 9.62767 10.0164C7.81999 11.8362 6.85413 14.3281 6.96312 16.8909C6.96311 21.9389 10.1901 25.2299 15.3021 25.2299C17.2538 25.2448 19.181 24.7958 20.9251 23.9199L21.9791 26.5079C19.8643 27.4137 17.5916 27.8939 15.2911 27.9209H15.2911ZM15.0671 19.3899C15.9342 19.4234 16.7771 19.0999 17.3991 18.4949L18.4211 13.7659C17.8395 13.1815 17.0455 12.8584 16.2211 12.8709C15.2299 12.8617 14.2785 13.2602 13.5899 13.9731C12.9012 14.686 12.5357 15.6506 12.5791 16.6409C12.5761 18.3039 13.3751 19.3899 15.0681 19.3899H15.0671Z" fill="#B0B7C3"/>
</svg>
