<svg width="44" height="44" viewBox="0 0 44 44" fill="none" xmlns="http://www.w3.org/2000/svg">
<path fill-rule="evenodd" clip-rule="evenodd" d="M9.16797 19.25C9.16797 11 14.668 5.5 22.918 5.5C30.5053 5.51595 36.652 11.6627 36.668 19.25C36.668 23.5267 32.678 29.399 24.698 36.867C23.6794 37.8204 22.1082 37.8599 21.043 36.959C13.1263 30.2643 9.16797 24.3613 9.16797 19.25ZM22.918 22C25.4491 22 27.501 19.9481 27.501 17.417C27.501 14.8859 25.4491 12.834 22.918 12.834C20.3868 12.834 18.335 14.8859 18.335 17.417C18.335 19.9481 20.3868 22 22.918 22H22.918Z" fill="#2DCA8C"/>
</svg>
