<svg width="41" height="41" viewBox="0 0 41 41" fill="none" xmlns="http://www.w3.org/2000/svg">
<path fill-rule="evenodd" clip-rule="evenodd" d="M22.358 30.5582C22.358 30.5982 22.358 30.6385 22.358 30.6792V35.8382C22.358 36.7881 21.5879 37.5582 20.638 37.5582C19.6881 37.5582 18.918 36.7881 18.918 35.8382L18.918 30.6782C18.918 30.6375 18.918 30.5972 18.918 30.5572C12.9955 29.6991 8.60128 24.6226 8.60101 18.6382L12.041 18.6382C12.041 23.3878 15.8914 27.2382 20.641 27.2382C25.3907 27.2382 29.241 23.3878 29.241 18.6382H32.681C32.681 24.6245 28.2837 29.7025 22.3584 30.5581L22.358 30.5582Z" fill="white"/>
<path opacity="0.3" fill-rule="evenodd" clip-rule="evenodd" d="M15 13.5V8.5C15 6.98122 15.537 5.68485 16.6109 4.61091C17.6849 3.53697 18.9812 3 20.5 3C22.0188 3 23.3151 3.53697 24.3891 4.61091C25.463 5.68485 26 6.98122 26 8.5V18.5C26 20.0188 25.463 21.3151 24.3891 22.3891C23.3151 23.463 22.0188 24 20.5 24C18.9812 24 17.6849 23.463 16.6109 22.3891C15.537 21.3151 15 20.0188 15 18.5V13.5Z" fill="white"/>
</svg>
