<svg width="48" height="48" viewBox="0 0 48 48" fill="none" xmlns="http://www.w3.org/2000/svg">
<path fill-rule="evenodd" clip-rule="evenodd" d="M16.0062 34.0752V15.9802C16.0053 15.106 16.5722 14.3325 17.4061 14.0702L35.4172 9.07016C36.0251 8.87899 36.6877 8.98895 37.2013 9.36622C37.7148 9.74349 38.0179 10.3429 38.0172 10.9802V33.9912C38.0172 36.2012 35.7772 37.9912 33.0172 37.9912C30.2572 37.9912 28.0172 36.1992 28.0172 33.9912C28.0172 31.7832 30.2572 29.9912 33.0172 29.9912C33.3521 29.991 33.6866 30.0178 34.0172 30.0712L34.0172 15.9802L20.0122 19.7322V37.9942C20.0122 40.2042 17.7722 41.9942 15.0122 41.9942C12.2522 41.9942 10.0122 40.2022 10.0122 37.9942C10.0122 35.7862 12.2522 33.9942 15.0122 33.9942C15.3452 33.9947 15.6776 34.0217 16.0062 34.0752L16.0062 34.0752Z" fill="#2DCA8C"/>
</svg>
