<svg width="48" height="48" viewBox="0 0 48 48" fill="none" xmlns="http://www.w3.org/2000/svg">
<path fill-rule="evenodd" clip-rule="evenodd" d="M16.006 34.0752V15.9802C16.005 15.106 16.572 14.3325 17.4059 14.0702L35.417 9.07016C36.0249 8.87899 36.6875 8.98895 37.201 9.36622C37.7146 9.74349 38.0176 10.3429 38.017 10.9802V33.9912C38.017 36.2012 35.777 37.9912 33.017 37.9912C30.257 37.9912 28.017 36.1992 28.017 33.9912C28.017 31.7832 30.257 29.9912 33.017 29.9912C33.3519 29.991 33.6863 30.0178 34.017 30.0712L34.017 15.9802L20.012 19.7322V37.9942C20.012 40.2042 17.772 41.9942 15.012 41.9942C12.252 41.9942 10.012 40.2022 10.012 37.9942C10.012 35.7862 12.252 33.9942 15.012 33.9942C15.3449 33.9947 15.6773 34.0217 16.006 34.0752L16.006 34.0752Z" fill="white"/>
</svg>
