<svg width="42" height="42" viewBox="0 0 42 42" fill="none" xmlns="http://www.w3.org/2000/svg">
<path opacity="0.3" fill-rule="evenodd" clip-rule="evenodd" d="M6.04608 36.8179H35.4121C36.843 36.8179 38.0031 35.6579 38.0031 34.2269V15.2269C38.0031 13.7959 36.843 12.6359 35.4121 12.6359H17.2741L12.8551 8.21091C12.3682 7.724 11.7076 7.45091 11.0191 7.45191H6.04608C4.61511 7.45191 3.45508 8.61194 3.45508 10.0429V34.2259C3.45474 34.913 3.72754 35.5723 4.21342 36.0585C4.69931 36.5447 5.35846 36.8178 6.04581 36.8179H6.04608Z" fill="white"/>
<path opacity="0.3" fill-rule="evenodd" clip-rule="evenodd" d="M6.91016 33.3629L17.2742 19.5439L27.6392 33.3629H6.91016Z" fill="white"/>
<path fill-rule="evenodd" clip-rule="evenodd" d="M19.002 33.3631L25.912 24.7261L32.822 33.3631L19.002 33.3631Z" fill="white"/>
<path opacity="0.3" fill-rule="evenodd" clip-rule="evenodd" d="M31.093 21.2709C32.5239 21.2709 33.684 20.1108 33.684 18.6799C33.684 17.2489 32.5239 16.0889 31.093 16.0889C29.662 16.0889 28.502 17.2489 28.502 18.6799C28.502 20.1108 29.662 21.2709 31.093 21.2709V21.2709Z" fill="white"/>
</svg>
