<svg width="42" height="42" viewBox="0 0 42 42" fill="none" xmlns="http://www.w3.org/2000/svg">
<path opacity="0.3" fill-rule="evenodd" clip-rule="evenodd" d="M6.04413 36.8182H35.4101C36.8411 36.8182 38.0011 35.6581 38.0011 34.2272V15.2272C38.0011 13.7962 36.8411 12.6362 35.4101 12.6362H17.2721L12.8531 8.21115C12.3663 7.72425 11.7057 7.45115 11.0171 7.45215H6.04413C4.61316 7.45215 3.45313 8.61218 3.45313 10.0432V34.2261C3.45279 34.9132 3.72558 35.5725 4.21147 36.0587C4.69736 36.5449 5.35651 36.8181 6.04386 36.8182H6.04413Z" fill="#FF715B"/>
<path opacity="0.3" fill-rule="evenodd" clip-rule="evenodd" d="M6.91016 33.3629L17.2742 19.5439L27.6392 33.3629H6.91016Z" fill="#FF715B"/>
<path fill-rule="evenodd" clip-rule="evenodd" d="M19 33.3631L25.91 24.7261L32.82 33.3631L19 33.3631Z" fill="#FF715B"/>
<path opacity="0.3" fill-rule="evenodd" clip-rule="evenodd" d="M31.0949 21.2709C32.5259 21.2709 33.6859 20.1108 33.6859 18.6799C33.6859 17.2489 32.5259 16.0889 31.0949 16.0889C29.6639 16.0889 28.5039 17.2489 28.5039 18.6799C28.5039 20.1108 29.6639 21.2709 31.0949 21.2709V21.2709Z" fill="#FF715B"/>
</svg>
