<svg width="40" height="40" viewBox="0 0 40 40" fill="none" xmlns="http://www.w3.org/2000/svg">
<path opacity="0.3" fill-rule="evenodd" clip-rule="evenodd" d="M19.343 8.04077H31.118C32.511 8.04138 33.6399 9.17075 33.6399 10.5637C33.64 11.9567 32.5111 13.0861 31.1181 13.0868H19.343C17.9496 13.0868 16.82 11.9572 16.82 10.5638C16.82 9.17036 17.9496 8.04077 19.343 8.04077ZM9.25102 28.2258H31.118C32.511 28.2264 33.6399 29.3557 33.6399 30.7487C33.64 32.1417 32.5111 33.2711 31.1181 33.2718H9.25102C7.85806 33.2712 6.72915 32.1418 6.72912 30.7488C6.72909 29.3559 7.85794 28.2264 9.25091 28.2258L9.25102 28.2258ZM9.25102 18.1338H31.118C32.5114 18.1338 33.641 19.2634 33.641 20.6568C33.641 22.0502 32.5114 23.1798 31.118 23.1798H9.25102C8.34937 23.1802 7.51604 22.6994 7.06511 21.9186C6.61418 21.1378 6.6142 20.1757 7.06517 19.3949C7.51613 18.6141 8.34948 18.1333 9.25114 18.1338L9.25102 18.1338Z" fill="white"/>
<path fill-rule="evenodd" clip-rule="evenodd" d="M8.12204 15.4549L12.957 11.2369C13.1396 11.0772 13.2443 10.8464 13.2443 10.6039C13.2443 10.3613 13.1396 10.1305 12.957 9.97085L8.12804 5.72685C7.88006 5.50623 7.52552 5.45209 7.223 5.58866C6.92048 5.72522 6.72658 6.02694 6.72804 6.35885L6.72804 14.8179C6.72792 15.1478 6.92066 15.4473 7.22095 15.5838C7.52123 15.7203 7.8736 15.6687 8.12211 15.4518L8.12204 15.4549Z" fill="white"/>
</svg>
