<svg width="40" height="40" viewBox="0 0 40 40" fill="none" xmlns="http://www.w3.org/2000/svg">
<path opacity="0.3" fill-rule="evenodd" clip-rule="evenodd" d="M19.3431 8.04102H31.1181C32.5111 8.04162 33.64 9.17099 33.64 10.564C33.6401 11.9569 32.5112 13.0863 31.1183 13.087H19.3431C17.9497 13.087 16.8201 11.9574 16.8201 10.564C16.8201 9.1706 17.9497 8.04102 19.3431 8.04102ZM9.25115 28.226H31.1181C32.5111 28.2266 33.64 29.356 33.6401 30.749C33.6401 32.1419 32.5112 33.2713 31.1183 33.272H9.25115C7.85818 33.2714 6.72927 32.142 6.72924 30.7491C6.72921 29.3561 7.85807 28.2267 9.25103 28.226L9.25115 28.226ZM9.25115 18.134H31.1181C32.5116 18.134 33.6411 19.2636 33.6411 20.657C33.6411 22.0504 32.5116 23.18 31.1181 23.18H9.25115C8.34949 23.1804 7.51616 22.6996 7.06523 21.9188C6.6143 21.138 6.61433 20.1759 7.06529 19.3951C7.51625 18.6144 8.34961 18.1336 9.25126 18.134L9.25115 18.134Z" fill="#2DCA8C"/>
<path fill-rule="evenodd" clip-rule="evenodd" d="M8.12204 15.4553L12.957 11.2373C13.1396 11.0776 13.2443 10.8469 13.2443 10.6043C13.2443 10.3618 13.1396 10.131 12.957 9.97134L8.12804 5.72734C7.88006 5.50672 7.52552 5.45258 7.223 5.58915C6.92048 5.72571 6.72658 6.02743 6.72804 6.35934L6.72804 14.8183C6.72792 15.1483 6.92066 15.4478 7.22095 15.5843C7.52123 15.7208 7.8736 15.6692 8.12211 15.4523L8.12204 15.4553Z" fill="#2DCA8C"/>
</svg>
