<svg width="43" height="43" viewBox="0 0 43 43" fill="none" xmlns="http://www.w3.org/2000/svg">
<path fill-rule="evenodd" clip-rule="evenodd" d="M16.08 33.6901C15.761 35.9091 13.494 37.6291 10.746 37.6291C7.77905 37.6291 5.37305 35.6291 5.37305 33.1521C5.37305 30.6751 7.77905 28.6751 10.746 28.6751C11.3522 28.674 11.9553 28.7599 12.537 28.9301L12.537 10.6411C12.528 9.73936 13.0979 8.93333 13.951 8.64111L24.251 5.4911C24.8755 5.30302 25.5523 5.42623 26.0703 5.82232C26.5884 6.21841 26.8848 6.8392 26.867 7.4911L26.867 10.6411C26.7666 11.6093 26.0328 12.3917 25.0731 12.5541C23.9104 12.8314 20.9254 13.4284 16.118 14.3451V33.2451C16.1189 33.3943 16.1062 33.5432 16.08 33.6901Z" fill="white"/>
<path opacity="0.3" fill-rule="evenodd" clip-rule="evenodd" d="M28.656 16.1348H35.82C36.8089 16.1351 37.6104 16.9368 37.6105 17.9257C37.6105 18.9146 36.809 19.7164 35.8201 19.7168L28.656 19.7168C27.6671 19.7165 26.8656 18.9147 26.8655 17.9258C26.8655 16.9369 27.667 16.1351 28.6558 16.1348H28.656ZM25.074 23.2988H35.82C36.8089 23.2992 37.6103 24.101 37.6102 25.0898C37.6102 26.0787 36.8087 26.8804 35.8198 26.8808H25.074C24.434 26.881 23.8424 26.5398 23.5223 25.9855C23.2022 25.4313 23.2022 24.7484 23.5223 24.1941C23.8423 23.6399 24.4338 23.2985 25.0738 23.2988H25.074ZM25.074 30.4628H35.82C36.8089 30.4632 37.6103 31.265 37.6102 32.2538C37.6102 33.2427 36.8087 34.0444 35.8198 34.0448H25.074C24.434 34.045 23.8424 33.7038 23.5223 33.1495C23.2022 32.5953 23.2022 31.9124 23.5223 31.3581C23.8423 30.8039 24.4338 30.4625 25.0738 30.4628H25.074Z" fill="white"/>
</svg>
