<svg width="43" height="43" viewBox="0 0 43 43" fill="none" xmlns="http://www.w3.org/2000/svg">
<path fill-rule="evenodd" clip-rule="evenodd" d="M28.9785 9.89787L10.4075 28.4409C9.25806 29.5905 9.25806 31.4542 10.4075 32.6039V32.6039C11.5571 33.7533 13.4208 33.7533 14.5705 32.6039L33.1135 14.0289C34.2539 12.8872 34.2539 11.0375 33.1135 9.89587L33.1135 9.89587C31.971 8.75463 30.1198 8.75553 28.9785 9.89787V9.89787Z" fill="white"/>
<path opacity="0.3" fill-rule="evenodd" clip-rule="evenodd" d="M17.8164 12.1419C17.8164 14.2838 16.5258 16.2146 14.5467 17.0336C12.5676 17.8526 10.2901 17.3984 8.77653 15.8828C7.26301 14.3673 6.8118 12.0891 7.63342 10.1111C8.45503 8.13312 10.3876 6.84507 12.5294 6.84791C13.9326 6.8487 15.278 7.40694 16.2695 8.39978C17.261 9.39263 17.8175 10.7387 17.8164 12.1419ZM36.1504 30.4759C36.1515 32.6159 34.8621 34.5472 32.8838 35.3673C30.9055 36.1875 28.6279 35.7349 27.1134 34.2207C25.5989 32.7066 25.1459 30.4291 25.9656 28.4506C26.7853 26.4721 28.7163 25.1823 30.8578 25.1829C32.2618 25.1822 33.6085 25.7397 34.6012 26.7325C35.5939 27.7252 36.1512 29.0719 36.1504 30.4759Z" fill="white"/>
</svg>
