<svg width="43" height="43" viewBox="0 0 43 43" fill="none" xmlns="http://www.w3.org/2000/svg">
<path fill-rule="evenodd" clip-rule="evenodd" d="M28.979 9.89836L10.408 28.4414C9.25855 29.591 9.25855 31.4547 10.408 32.6044V32.6044C11.5576 33.7538 13.4213 33.7538 14.571 32.6044L33.114 14.0294C34.2544 12.8877 34.2544 11.038 33.114 9.89636L33.114 9.89636C31.9715 8.75512 30.1203 8.75602 28.979 9.89836V9.89836Z" fill="#2DCA8C"/>
<path opacity="0.3" fill-rule="evenodd" clip-rule="evenodd" d="M17.8167 12.1417C17.8167 14.2835 16.5261 16.2143 14.547 17.0333C12.5679 17.8523 10.2903 17.3981 8.77677 15.8826C7.26325 14.3671 6.81205 12.0889 7.63366 10.1109C8.45528 8.13288 10.3878 6.84483 12.5297 6.84766C13.9328 6.84846 15.2782 7.40669 16.2697 8.39954C17.2613 9.39239 17.8177 10.7385 17.8167 12.1417ZM36.1507 30.4757C36.1517 32.6157 34.8624 34.5469 32.8841 35.3671C30.9057 36.1872 28.6282 35.7347 27.1137 34.2205C25.5992 32.7063 25.1461 30.4289 25.9658 28.4503C26.7855 26.4718 28.7165 25.1821 30.8581 25.1827C32.262 25.182 33.6087 25.7394 34.6014 26.7322C35.5941 27.725 36.1515 29.0717 36.1507 30.4757Z" fill="#2DCA8C"/>
</svg>
