<svg width="42" height="42" viewBox="0 0 42 42" fill="none" xmlns="http://www.w3.org/2000/svg">
<path opacity="0.3" fill-rule="evenodd" clip-rule="evenodd" d="M31.9169 14.3965C29.5349 14.3965 27.6039 12.4655 27.6039 10.0835C27.6039 7.7015 29.5349 5.77051 31.9169 5.77051C34.2989 5.77051 36.2299 7.70151 36.2299 10.0835C36.2299 12.4655 34.2989 14.3965 31.9169 14.3965H31.9169ZM31.9169 36.8245C29.5349 36.8245 27.6039 34.8935 27.6039 32.5115C27.6039 30.1295 29.5349 28.1985 31.9169 28.1985C34.2989 28.1985 36.2299 30.1295 36.2299 32.5115C36.2287 34.8956 34.2968 36.8257 31.9148 36.8245H31.9169ZM9.48891 36.8245C7.74446 36.8245 6.17179 35.7737 5.50421 34.162C4.83664 32.5504 5.20565 30.6953 6.43916 29.4618C7.67267 28.2282 9.52776 27.8592 11.1394 28.5268C12.7511 29.1944 13.8019 30.7671 13.8019 32.5115C13.8019 34.8935 11.8709 36.8245 9.48891 36.8245H9.48891Z" fill="#FFBE3D"/>
<path fill-rule="evenodd" clip-rule="evenodd" d="M9.48878 14.3965C7.10678 14.3965 5.17578 12.4655 5.17578 10.0835C5.17578 7.7015 7.10678 5.77051 9.48878 5.77051C11.8708 5.77051 13.8018 7.7015 13.8018 10.0835C13.8018 12.4655 11.8708 14.3965 9.48878 14.3965L9.48878 14.3965ZM18.9778 7.49651H22.4278C23.3802 7.49695 24.152 8.26917 24.152 9.22158C24.1519 10.174 23.38 10.9461 22.4276 10.9465H18.9758C18.0233 10.9462 17.2514 10.174 17.2513 9.22154C17.2513 8.26908 18.0233 7.49685 18.9757 7.49651L18.9778 7.49651ZM18.9778 31.6495H22.4278C23.3799 31.6503 24.1514 32.4223 24.1514 33.3745C24.1514 34.3266 23.38 35.0987 22.4279 35.0995H18.9758C18.0231 35.0995 17.2508 34.3272 17.2508 33.3745C17.2508 32.4218 18.0231 31.6495 18.9758 31.6495L18.9778 31.6495ZM8.62578 17.8475C9.57808 17.847 10.3507 18.6182 10.3518 19.5705V23.0205C10.3515 23.973 9.57924 24.7449 8.62678 24.7449C7.67432 24.7449 6.90211 23.973 6.90178 23.0205V19.5705C6.90297 18.6188 7.67441 17.848 8.62593 17.8475L8.62578 17.8475ZM32.7788 17.8475C33.7311 17.847 34.5037 18.6182 34.5048 19.5705V23.0205C34.5048 23.9732 33.7325 24.7455 32.7798 24.7455C31.8271 24.7455 31.0548 23.9732 31.0548 23.0205V19.5705C31.0559 18.6201 31.8255 17.8497 32.7758 17.8475L32.7788 17.8475Z" fill="#FFBE3D"/>
</svg>
