<svg width="45" height="45" viewBox="0 0 45 45" fill="none" xmlns="http://www.w3.org/2000/svg">
<path opacity="0.3" fill-rule="evenodd" clip-rule="evenodd" d="M34.5705 15.1008C31.9902 15.1008 29.8985 13.0091 29.8985 10.4288C29.8985 7.84856 31.9902 5.75683 34.5705 5.75684C37.1507 5.75684 39.2425 7.84856 39.2425 10.4288C39.2425 13.0091 37.1507 15.1008 34.5705 15.1008H34.5705ZM34.5705 39.3938C31.9902 39.3938 29.8985 37.3021 29.8985 34.7218C29.8985 32.1416 31.9902 30.0498 34.5705 30.0498C37.1507 30.0498 39.2425 32.1416 39.2425 34.7218C39.2425 37.3021 37.1507 39.3938 34.5705 39.3938ZM10.2775 39.3938C7.69719 39.3938 5.60547 37.3021 5.60547 34.7218C5.60547 32.1416 7.69719 30.0498 10.2775 30.0498C12.8577 30.0498 14.9495 32.1416 14.9495 34.7218C14.9495 37.3021 12.8577 39.3938 10.2775 39.3938H10.2775Z" fill="#2DCA8C"/>
<path fill-rule="evenodd" clip-rule="evenodd" d="M10.2775 15.1008C7.69719 15.1008 5.60547 13.0091 5.60547 10.4288C5.60547 7.84856 7.69719 5.75684 10.2775 5.75684C12.8577 5.75684 14.9495 7.84856 14.9495 10.4288C14.9495 13.0091 12.8577 15.1008 10.2775 15.1008ZM20.5555 7.62584H24.2925C25.3076 7.64932 26.1182 8.47896 26.1182 9.49434C26.1182 10.5097 25.3076 11.3394 24.2925 11.3628H20.5555C19.5404 11.3394 18.7297 10.5097 18.7297 9.49434C18.7297 8.47896 19.5404 7.64932 20.5555 7.62584L20.5555 7.62584ZM20.5555 33.7878H24.2925C25.3076 33.8113 26.1183 34.641 26.1183 35.6563C26.1183 36.6717 25.3076 37.5014 24.2925 37.5248H20.5555C19.5404 37.5013 18.7297 36.6717 18.7297 35.6563C18.7297 34.641 19.5404 33.8113 20.5555 33.7878L20.5555 33.7878ZM9.34247 18.8378C10.3747 18.8378 11.2115 19.6746 11.2115 20.7068L11.2115 24.4438C11.188 25.4589 10.3583 26.2696 9.34297 26.2696C8.32759 26.2696 7.49795 25.4589 7.47447 24.4438L7.47447 20.7068C7.47447 19.675 8.31064 18.8384 9.34247 18.8378H9.34247ZM35.5045 18.8378C36.5367 18.8378 37.3735 19.6746 37.3735 20.7068V24.4438C37.35 25.4589 36.5203 26.2696 35.505 26.2696C34.4896 26.2696 33.66 25.4589 33.6365 24.4438V20.7068C33.6365 19.6746 34.4733 18.8378 35.5055 18.8378H35.5045Z" fill="#2DCA8C"/>
</svg>
