<svg width="43" height="43" viewBox="0 0 43 43" fill="none" xmlns="http://www.w3.org/2000/svg">
<path opacity="0.3" fill-rule="evenodd" clip-rule="evenodd" d="M8.0128 12.7319H16.9128C18.3879 12.7319 19.5838 13.9278 19.5838 15.4029C19.5838 16.8781 18.3879 18.0739 16.9128 18.0739L8.0128 18.0739C6.53764 18.0739 5.3418 16.8781 5.3418 15.4029C5.3418 13.9278 6.53764 12.7319 8.0128 12.7319L8.0128 12.7319ZM24.0418 26.9759H32.9418C34.4163 26.9768 35.6112 28.1724 35.6112 29.647C35.6111 31.1215 34.4163 32.3171 32.9417 32.3179H24.0418C22.5673 32.317 21.3724 31.1214 21.3724 29.6469C21.3725 28.1724 22.5673 26.9768 24.0419 26.9759H24.0418Z" fill="#FF715B"/>
<path fill-rule="evenodd" clip-rule="evenodd" d="M30.2688 19.8539C27.3185 19.8539 24.9268 17.4622 24.9268 14.5119C24.9268 11.5616 27.3185 9.16992 30.2688 9.16992C33.2191 9.16992 35.6108 11.5616 35.6108 14.5119C35.6108 17.4622 33.2191 19.8539 30.2688 19.8539H30.2688ZM10.6838 34.0979C7.73349 34.0979 5.3418 31.7062 5.3418 28.7559C5.3418 25.8056 7.73349 23.4139 10.6838 23.4139C13.6341 23.4139 16.0258 25.8056 16.0258 28.7559C16.0258 31.7062 13.6341 34.0979 10.6838 34.0979L10.6838 34.0979Z" fill="#FF715B"/>
</svg>
