<svg width="43" height="43" viewBox="0 0 43 43" fill="none" xmlns="http://www.w3.org/2000/svg">
<path opacity="0.3" fill-rule="evenodd" clip-rule="evenodd" d="M8.01255 12.7319H16.9126C18.3877 12.7319 19.5836 13.9278 19.5836 15.4029C19.5836 16.8781 18.3877 18.0739 16.9126 18.0739L8.01255 18.0739C6.5374 18.0739 5.34155 16.8781 5.34155 15.4029C5.34155 13.9278 6.5374 12.7319 8.01255 12.7319L8.01255 12.7319ZM24.0416 26.9759H32.9416C34.4161 26.9768 35.6109 28.1724 35.6109 29.647C35.6109 31.1215 34.416 32.3171 32.9415 32.3179H24.0416C22.567 32.317 21.3722 31.1214 21.3722 29.6469C21.3722 28.1724 22.5671 26.9768 24.0416 26.9759H24.0416Z" fill="white"/>
<path fill-rule="evenodd" clip-rule="evenodd" d="M30.2686 19.8539C27.3182 19.8539 24.9265 17.4622 24.9265 14.5119C24.9266 11.5616 27.3182 9.16992 30.2686 9.16992C33.2189 9.16992 35.6106 11.5616 35.6106 14.5119C35.6106 17.4622 33.2189 19.8539 30.2686 19.8539H30.2686ZM10.6836 34.0979C7.73325 34.0979 5.34155 31.7062 5.34155 28.7559C5.34155 25.8056 7.73325 23.4139 10.6836 23.4139C13.6339 23.4139 16.0256 25.8056 16.0256 28.7559C16.0256 31.7062 13.6339 34.0979 10.6836 34.0979L10.6836 34.0979Z" fill="white"/>
</svg>
