<svg width="34" height="33" viewBox="0 0 34 33" fill="none" xmlns="http://www.w3.org/2000/svg">
<path opacity="0.3" fill-rule="evenodd" clip-rule="evenodd" d="M15.3086 2.09717C16.0841 2.0975 16.7125 2.72626 16.7125 3.50173C16.7125 4.2772 16.0839 4.9059 15.3085 4.90617H8.42759C7.68225 4.9059 6.96737 5.20187 6.44033 5.7289C5.9133 6.25594 5.61733 6.97083 5.61759 7.71617V24.5722C5.61759 26.1235 6.87523 27.3812 8.42659 27.3812L25.2836 27.3812C26.835 27.3812 28.0926 26.1235 28.0926 24.5722L28.0926 21.7632C28.0929 20.9878 28.7216 20.3593 29.497 20.3593C30.2725 20.3592 30.9013 20.9877 30.9016 21.7632L30.9016 24.5722C30.9005 27.6774 28.3839 30.1922 25.2807 30.1912H8.42759C5.32431 30.1912 2.80859 27.6755 2.80859 24.5722L2.80859 7.71617C2.80752 4.61482 5.32237 2.09824 8.42565 2.09717H15.3086Z" fill="white"/>
<path fill-rule="evenodd" clip-rule="evenodd" d="M9.83969 18.809C9.63396 15.619 10.7584 12.4861 12.9457 10.155C15.1907 7.89701 18.5457 7.50602 22.5677 7.32701V1.86901C22.5683 1.45266 22.8141 1.07569 23.1948 0.90704C23.5755 0.738396 24.0198 0.809692 24.3287 1.08899L33.4707 9.38301C33.9014 9.7739 33.9341 10.4398 33.5437 10.871C33.523 10.8937 33.5017 10.9153 33.4797 10.936L24.3367 19.402C24.0293 19.6859 23.5831 19.761 23.1997 19.5934C22.8162 19.4259 22.5682 19.0474 22.5677 18.629V13.205C20.5357 13.1737 18.5094 13.4288 16.5487 13.963C14.182 14.7157 12.3507 16.8457 11.0547 20.353C10.9019 20.7666 10.5076 21.0411 10.0667 21.041L9.83369 21.041C9.83369 20.397 9.83969 19.377 9.83969 18.809Z" fill="white"/>
</svg>
