<svg width="41" height="41" viewBox="0 0 41 41" fill="none" xmlns="http://www.w3.org/2000/svg">
<path opacity="0.3" fill-rule="evenodd" clip-rule="evenodd" d="M6.8877 6.56006L20.0287 4.09606C20.448 4.01746 20.8784 4.01746 21.2977 4.09606L34.4397 6.56006V22.5451C34.4414 27.5936 31.8398 32.2912 27.5556 34.9707L21.5767 38.7081C21.0183 39.0567 20.3101 39.0567 19.7517 38.7081L13.7767 34.9731C9.49123 32.2952 6.88774 27.5984 6.8877 22.5451L6.8877 6.56006Z" fill="#FF715B"/>
<path fill-rule="evenodd" clip-rule="evenodd" d="M19.244 25.0698C18.8075 25.0647 18.3914 24.8846 18.089 24.5698L14.789 21.2698C14.1798 20.6272 14.1933 19.6163 14.8194 18.9903C15.4455 18.3642 16.4564 18.3507 17.099 18.9598L19.244 21.1048L24.693 15.6698C25.3356 15.0607 26.3464 15.0742 26.9725 15.7003C27.5986 16.3264 27.6121 17.3372 27.003 17.9798L20.403 24.5798C20.0979 24.8919 19.6804 25.0684 19.244 25.0698L19.244 25.0698Z" fill="#FF715B"/>
</svg>
