<svg width="41" height="41" viewBox="0 0 41 41" fill="none" xmlns="http://www.w3.org/2000/svg">
<path opacity="0.3" fill-rule="evenodd" clip-rule="evenodd" d="M6.88745 6.56006L20.0285 4.09606C20.4478 4.01746 20.8781 4.01746 21.2975 4.09606L34.4395 6.56006V22.5451C34.4412 27.5936 31.8396 32.2912 27.5553 34.9707L21.5765 38.7081C21.0181 39.0567 20.3098 39.0567 19.7515 38.7081L13.7765 34.9731C9.49099 32.2952 6.88749 27.5984 6.88745 22.5451L6.88745 6.56006Z" fill="white"/>
<path fill-rule="evenodd" clip-rule="evenodd" d="M19.2435 25.0698C18.807 25.0647 18.3909 24.8846 18.0885 24.5698L14.7885 21.2698C14.1793 20.6272 14.1928 19.6163 14.8189 18.9903C15.445 18.3642 16.4559 18.3507 17.0985 18.9598L19.2435 21.1048L24.6925 15.6698C25.3351 15.0607 26.3459 15.0742 26.972 15.7003C27.5981 16.3264 27.6116 17.3372 27.0025 17.9798L20.4025 24.5798C20.0974 24.8919 19.6799 25.0684 19.2435 25.0698L19.2435 25.0698Z" fill="white"/>
</svg>
