<svg width="39" height="39" viewBox="0 0 39 39" fill="none" xmlns="http://www.w3.org/2000/svg">
<path opacity="0.3" fill-rule="evenodd" clip-rule="evenodd" d="M3 19.5C3 14.9437 4.61091 11.0546 7.83274 7.83274C11.0546 4.61091 14.9437 3 19.5 3C24.0564 3 27.9454 4.61091 31.1673 7.83274C34.3891 11.0546 36 14.9437 36 19.5C36 24.0564 34.3891 27.9454 31.1673 31.1673C27.9454 34.3891 24.0564 36 19.5 36C14.9437 36 11.0546 34.3891 7.83274 31.1673C4.61091 27.9454 3 24.0564 3 19.5Z" fill="white"/>
<path fill-rule="evenodd" clip-rule="evenodd" d="M10.074 23.572C9.57368 22.8214 9.77649 21.8073 10.527 21.307C11.2776 20.8066 12.2917 21.0094 12.792 21.76C14.682 24.595 16.912 25.933 19.6 25.933C22.2881 25.933 24.5181 24.595 26.4081 21.76C26.9084 21.0094 27.9225 20.8066 28.6731 21.307C29.4236 21.8073 29.6264 22.8214 29.1261 23.572C26.6601 27.272 23.4451 29.199 19.6001 29.199C15.7551 29.199 12.54 27.271 10.074 23.572Z" fill="white"/>
</svg>
