<svg width="28" height="28" viewBox="0 0 28 28" fill="none" xmlns="http://www.w3.org/2000/svg">
<path opacity="0.3" fill-rule="evenodd" clip-rule="evenodd" d="M2 14C2 10.6863 3.17157 7.85786 5.51472 5.51472C7.85786 3.17157 10.6863 2 14 2C17.3137 2 20.1421 3.17157 22.4853 5.51472C24.8284 7.85786 26 10.6863 26 14C26 17.3137 24.8284 20.1421 22.4853 22.4853C20.1421 24.8284 17.3137 26 14 26C10.6863 26 7.85786 24.8284 5.51472 22.4853C3.17157 20.1421 2 17.3137 2 14Z" fill="#B0B7C3"/>
<path fill-rule="evenodd" clip-rule="evenodd" d="M7.19217 16.9929C6.96098 16.6465 6.93219 16.2031 7.11667 15.8298C7.30114 15.4564 7.67082 15.2099 8.08639 15.1831C8.50196 15.1563 8.90025 15.3533 9.13115 15.6999C10.4792 17.7229 12.0702 18.6769 13.9882 18.6769C15.9062 18.6769 17.4972 17.7219 18.8452 15.6999C19.2022 15.1644 19.9257 15.0198 20.4612 15.3769C20.9966 15.7339 21.1412 16.4574 20.7842 16.9929C19.0252 19.6319 16.7312 21.0079 13.9842 21.0079C11.2372 21.0079 8.94717 19.6319 7.19217 16.9929Z" fill="#B0B7C3"/>
</svg>
