<svg width="39" height="39" viewBox="0 0 39 39" fill="none" xmlns="http://www.w3.org/2000/svg">
<path opacity="0.3" fill-rule="evenodd" clip-rule="evenodd" d="M3 19.5C3 14.9437 4.61091 11.0546 7.83274 7.83274C11.0546 4.61091 14.9437 3 19.5 3C24.0564 3 27.9454 4.61091 31.1673 7.83274C34.3891 11.0546 36 14.9437 36 19.5C36 24.0564 34.3891 27.9454 31.1673 31.1673C27.9454 34.3891 24.0564 36 19.5 36C14.9437 36 11.0546 34.3891 7.83274 31.1673C4.61091 27.9454 3 24.0564 3 19.5Z" fill="#377DFF"/>
<path fill-rule="evenodd" clip-rule="evenodd" d="M10.0738 23.5717C9.57343 22.8212 9.77625 21.8071 10.5268 21.3067C11.2774 20.8063 12.2914 21.0092 12.7918 21.7597C14.6818 24.5947 16.9118 25.9327 19.5998 25.9327C22.2878 25.9327 24.5178 24.5947 26.4078 21.7597C26.9082 21.0092 27.9223 20.8063 28.6728 21.3067C29.4234 21.8071 29.6262 22.8212 29.1258 23.5717C26.6598 27.2717 23.4448 29.1987 19.5998 29.1987C15.7548 29.1987 12.5398 27.2707 10.0738 23.5717Z" fill="#377DFF"/>
</svg>
