<svg width="45" height="45" viewBox="0 0 45 45" fill="none" xmlns="http://www.w3.org/2000/svg">
<path fill-rule="evenodd" clip-rule="evenodd" d="M22.4146 33.7921L14.7846 37.8031C14.1553 38.1337 13.3929 38.0785 12.8178 37.6607C12.2427 37.2428 11.9546 36.5348 12.0746 35.8341L13.5316 27.3341L7.35657 21.3211C6.84744 20.8244 6.66457 20.0816 6.88491 19.4053C7.10525 18.729 7.69055 18.2366 8.39457 18.1351L16.9246 16.8961L20.7396 9.1651C21.0543 8.5276 21.7036 8.12402 22.4146 8.12402C23.1255 8.12402 23.7748 8.5276 24.0896 9.1651L27.9046 16.8951L36.4346 18.1341C37.1381 18.2365 37.7225 18.7293 37.9421 19.4055C38.1618 20.0816 37.9786 20.8238 37.4696 21.3201L31.2976 27.3371L32.7546 35.8371C32.8746 36.5378 32.5865 37.2458 32.0114 37.6637C31.4363 38.0815 30.6739 38.1367 30.0446 37.8061L22.4146 33.7921Z" fill="#FFBE3D"/>
</svg>
