<svg width="45" height="45" viewBox="0 0 45 45" fill="none" xmlns="http://www.w3.org/2000/svg">
<path fill-rule="evenodd" clip-rule="evenodd" d="M22.4165 33.7919L14.7865 37.8029C14.1572 38.1335 13.3948 38.0783 12.8197 37.6604C12.2446 37.2426 11.9565 36.5345 12.0765 35.8339L13.5335 27.3339L7.35853 21.3209C6.84939 20.8242 6.66652 20.0814 6.88686 19.4051C7.1072 18.7288 7.69251 18.2363 8.39653 18.1349L16.9265 16.8959L20.7415 9.16486C21.0563 8.52736 21.7056 8.12378 22.4165 8.12378C23.1275 8.12378 23.7768 8.52736 24.0915 9.16486L27.9065 16.8949L36.4365 18.1339C37.14 18.2363 37.7244 18.7291 37.9441 19.4052C38.1637 20.0814 37.9805 20.8236 37.4715 21.3199L31.2995 27.3369L32.7565 35.8369C32.8765 36.5375 32.5884 37.2456 32.0133 37.6634C31.4382 38.0813 30.6758 38.1365 30.0465 37.8059L22.4165 33.7919Z" fill="white"/>
</svg>
