<svg width="44" height="44" viewBox="0 0 44 44" fill="none" xmlns="http://www.w3.org/2000/svg">
<path opacity="0.3" fill-rule="evenodd" clip-rule="evenodd" d="M29.9307 29.595C29.5005 29.8566 28.9618 29.8623 28.5262 29.61C28.0905 29.3576 27.8275 28.8875 27.8403 28.3843C27.8531 27.881 28.1397 27.4249 28.5877 27.195C30.4685 26.1452 31.6371 24.1629 31.6452 22.0089C31.6533 19.855 30.4995 17.864 28.6267 16.8C28.1847 16.5651 27.9052 16.1087 27.8968 15.6082C27.8884 15.1078 28.1524 14.6422 28.5862 14.3925C29.02 14.1428 29.5551 14.1484 29.9837 14.407C32.7192 15.9622 34.4042 18.871 34.3924 22.0177C34.3805 25.1644 32.6738 28.0604 29.9267 29.595H29.9307ZM30.7987 36.458C30.1139 36.7873 29.2918 36.4991 28.9624 35.8144C28.6331 35.1297 28.921 34.3076 29.6056 33.9781C34.1937 31.773 37.1218 27.1437 37.1481 22.0533C37.1745 16.963 34.2946 12.3036 29.7297 10.051C29.2819 9.83743 28.9837 9.3993 28.9494 8.90436C28.915 8.40941 29.1498 7.9343 29.5638 7.6609C29.9778 7.38749 30.5069 7.35812 30.9487 7.58404C36.4569 10.3027 39.9317 15.9254 39.8998 22.0679C39.8679 28.2105 36.3349 33.7967 30.7987 36.458Z" fill="#377DFF"/>
<path fill-rule="evenodd" clip-rule="evenodd" d="M12.841 29.3239L6.61797 28.0789C4.90268 27.7361 3.6679 26.2301 3.66797 24.4809L3.66797 19.4889C3.66692 17.739 4.90189 16.2319 6.61792 15.8889L12.841 14.6439L18.882 8.60289C19.4071 8.07815 20.1968 7.92156 20.8824 8.20617C21.5681 8.49077 22.0147 9.16049 22.014 9.90289V34.0679C22.0147 34.8103 21.5681 35.48 20.8824 35.7646C20.1967 36.0492 19.4071 35.8926 18.882 35.3679L12.841 29.3239Z" fill="#377DFF"/>
</svg>
