<svg width="44" height="44" viewBox="0 0 44 44" fill="none" xmlns="http://www.w3.org/2000/svg">
<path opacity="0.3" fill-rule="evenodd" clip-rule="evenodd" d="M29.9316 29.595C29.5015 29.8566 28.9628 29.8623 28.5272 29.61C28.0915 29.3576 27.8285 28.8875 27.8413 28.3843C27.8541 27.881 28.1407 27.4249 28.5886 27.195C30.4694 26.1452 31.6381 24.1629 31.6462 22.0089C31.6543 19.855 30.5005 17.864 28.6276 16.8C28.1857 16.5651 27.9062 16.1087 27.8978 15.6082C27.8893 15.1078 28.1533 14.6422 28.5872 14.3925C29.021 14.1428 29.5561 14.1484 29.9846 14.407C32.7201 15.9622 34.4051 18.871 34.3933 22.0177C34.3815 25.1644 32.6747 28.0604 29.9276 29.595H29.9316ZM30.7996 36.458C30.1148 36.7873 29.2928 36.4991 28.9634 35.8144C28.634 35.1297 28.922 34.3076 29.6066 33.9781C34.1946 31.773 37.1227 27.1437 37.1491 22.0533C37.1755 16.963 34.2956 12.3036 29.7306 10.051C29.2828 9.83743 28.9847 9.3993 28.9504 8.90436C28.916 8.40941 29.1508 7.9343 29.5648 7.6609C29.9788 7.38749 30.5079 7.35812 30.9496 7.58404C36.4579 10.3027 39.9327 15.9254 39.9008 22.0679C39.8689 28.2105 36.3358 33.7967 30.7996 36.458Z" fill="white"/>
<path fill-rule="evenodd" clip-rule="evenodd" d="M12.8419 29.3239L6.61895 28.0789C4.90366 27.7361 3.66888 26.2301 3.66895 24.4809L3.66895 19.4889C3.6679 17.739 4.90287 16.2319 6.61889 15.8889L12.8419 14.6439L18.8829 8.60289C19.4081 8.07815 20.1977 7.92156 20.8834 8.20617C21.5691 8.49077 22.0157 9.16049 22.0149 9.90289V34.0679C22.0157 34.8103 21.5691 35.48 20.8834 35.7646C20.1977 36.0492 19.4081 35.8926 18.8829 35.3679L12.8419 29.3239Z" fill="white"/>
</svg>
