<svg width="43" height="43" viewBox="0 0 43 43" fill="none" xmlns="http://www.w3.org/2000/svg">
<path opacity="0.3" fill-rule="evenodd" clip-rule="evenodd" d="M7.16552 7.1709H35.8285C37.8074 7.1709 39.4115 8.77506 39.4115 10.7539V32.2539C39.4122 34.2315 37.8086 35.8362 35.8298 35.8369H7.16552C6.21473 35.8369 5.30293 35.459 4.6309 34.7864C3.95887 34.1138 3.58172 33.2017 3.58252 32.2509V10.7539C3.58184 8.7763 5.18545 7.17158 7.16428 7.1709H7.16552Z" fill="#FFBE3D"/>
<path fill-rule="evenodd" clip-rule="evenodd" d="M33.1415 19.7109H9.85253C8.36854 19.7109 7.16553 20.9139 7.16553 22.3979V23.2979H15.3805C15.8558 23.298 16.3115 23.4869 16.6475 23.8229L18.4385 25.6109C20.1275 27.2996 22.8656 27.2996 24.5545 25.6109L26.3455 23.8199C26.6815 23.4839 27.1373 23.295 27.6125 23.2949H35.8275V22.3949C35.8259 20.9126 34.624 19.7115 33.1416 19.7109H33.1415Z" fill="#FFBE3D"/>
<path fill-rule="evenodd" clip-rule="evenodd" d="M9.85253 10.7539C8.36854 10.7539 7.16553 11.9569 7.16553 13.4409V14.3409H35.8285V13.4409C35.829 11.9578 34.6264 10.7544 33.1425 10.7539L9.85253 10.7539Z" fill="#FFBE3D"/>
</svg>
