<svg width="44" height="44" viewBox="0 0 44 44" fill="none" xmlns="http://www.w3.org/2000/svg">
<path opacity="0.3" fill-rule="evenodd" clip-rule="evenodd" d="M35.4529 25.5658L31.6009 28.7418C29.2333 25.8676 25.7061 24.2006 21.9823 24.1957C18.2586 24.1909 14.7271 25.8488 12.352 28.7168L8.50895 25.5278C11.8345 21.5146 16.7778 19.1952 21.9899 19.2025C27.2019 19.2099 32.1387 21.5432 35.4529 25.5658ZM43.1049 19.1498L39.2629 22.3378C34.9973 17.1921 28.6622 14.2125 21.9784 14.2085C15.2945 14.2044 8.95583 17.1762 4.68394 22.3168L0.845947 19.1248C6.06703 12.8433 13.8133 9.21197 21.9813 9.2168C30.1493 9.22163 37.8913 12.8621 43.1049 19.1498V19.1498Z" fill="white"/>
<path fill-rule="evenodd" clip-rule="evenodd" d="M27.678 31.834L23.871 35.064L21.898 36.679L20.014 35.119L16.114 31.997C17.5123 30.2505 19.6182 29.2206 21.8553 29.1892C24.0924 29.1579 26.2263 30.1283 27.673 31.835L27.678 31.834Z" fill="white"/>
</svg>
